<?xml version="1.0" encoding="utf-8"?>
<!-- Generator: Adobe Illustrator 25.4.1, SVG Export Plug-In . SVG Version: 6.00 Build 0)  -->
<svg version="1.1" id="Object" xmlns="http://www.w3.org/2000/svg" xmlns:xlink="http://www.w3.org/1999/xlink" x="0px" y="0px"
	 viewBox="0 0 3000 2000" style="enable-background:new 0 0 3000 2000;" xml:space="preserve">
<style type="text/css">
	.st0{fill:#36207F;}
	.st1{fill:#674BA8;}
	.st2{fill:#E2E2E2;}
	.st3{fill:#957CC6;}
	.st4{fill:#1B77E3;}
	.st5{enable-background:new    ;}
	.st6{fill:#355389;}
	.st7{fill:#13375B;}
	.st8{fill:#F47458;}
	.st9{fill:#F6C359;}
	.st10{fill:#FAE0B2;}
	.st11{fill:#F48561;}
	.st12{fill:#D1D1D1;}
	.st13{fill:#9D9D9D;}
	.st14{fill:#F3F3F3;}
	.st15{fill:#FFFFFF;}
	.st16{fill:#466EB5;}
	.st17{fill:#12442F;}
	.st18{fill:#6D50A0;}
	.st19{fill:#6A418A;}
	.st20{fill:#492B5C;}
	.st21{fill:#5C50A0;}
	.st22{fill:#A48AC0;}
	.st23{fill:#774E9F;}
	.st24{fill:#FDC560;}
	.st25{fill:#A2BE4E;}
	.st26{fill:#7A8E3B;}
	.st27{fill:#F7A391;}
	.st28{fill:#B75742;}
	.st29{fill:#40451C;}
	.st30{fill:#171C51;}
	.st31{opacity:0.4;enable-background:new    ;}
	.st32{fill:#50BFA5;}
	.st33{fill:#96D9C9;}
	.st34{fill:#5E76B8;}
	.st35{fill:#7180A9;}
	.st36{fill:#96A4CD;}
	.st37{fill:#F37B4A;}
	.st38{fill:#E9F3E2;}
	.st39{fill:#A0CC94;}
	.st40{fill:#86B1F2;}
	.st41{fill:#466EB6;}
	.st42{fill:#1F5128;}
	.st43{fill:#241F5A;}
	.st44{fill:#3C8F7C;}
	.st45{fill:#F6CB7F;}
	.st46{fill:#E13D33;}
</style>
<rect class="st0" width="3000" height="2000"/>
<path class="st1" d="M702.8,1056c-75.2,74.6-114.3,156-130.4,236.8c-12.6-70.7-20.6-142.9-20.6-212.8
	c0-177.7,127.3-306.1,275.8-384.1C840,810.2,828.2,931.6,702.8,1056z"/>
<path class="st1" d="M1703.8,411c120.5-75.8,241.6-140.2,376-123c312,40,312,280,336,424c4.4,26.6,15.4,51.8,30.5,77.1
	c-190.1-64.4-389.4-32-574.5-221.1C1823.9,518.9,1767,464.2,1703.8,411z"/>
<path class="st2" d="M2456.6,1807.4c-0.5,0.4-0.7,0.6-0.7,0.6h-1720c0,0-1.3-2.7-3.6-7.9L2456.6,1807.4z"/>
<path class="st3" d="M2456.6,1807.4l-1724.3-7.2c-19.9-44-116.9-266.4-159.8-507.4c16.1-80.7,55.3-162.2,130.4-236.8
	C828.2,931.6,840,810.2,827.6,695.9c132.2-69.5,281.2-99,372.2-87.9c186.7,22.8,344.8-97,504-197c63.1,53.2,120,108,168,157
	c185,189.1,384.4,156.7,574.5,221.1c66.7,112.3,214,228.4,233.5,482.9C2703.1,1574.4,2470.9,1794.1,2456.6,1807.4z"/>
<path class="st2" d="M572.4,1292.8c42.9,241,139.9,463.3,159.8,507.4l-28.4-0.1C703.8,1800,521.2,1549.8,572.4,1292.8z"/>
<path class="st1" d="M1703.8,411c-159.2,100.1-317.3,219.8-504,197c-91-11.1-240,18.4-372.2,87.9c-18.7-172.5-92.5-329,84.8-455.9
	C1174.4,52.6,1478.7,221.3,1703.8,411z"/>
<path class="st1" d="M2775.9,1424c-104.8,224-168,384-168,384l-151.3-0.6c14.4-13.3,246.6-233,223.3-535.4
	c-19.6-254.5-166.9-370.6-233.5-482.9c35,11.9,69.8,27,104,47.5C2770.4,968,2880.7,1200,2775.9,1424z"/>
<g id="OBJECT_51_">
	<g>
		<g>
			<g>
				<path class="st4" d="M730.3,1818.4c-0.3-1-35.2-101.2-94.4-205.2c-54.3-95.5-140.6-213.9-243.9-235.8l2.1-9.7
					c47.4,10.1,95.1,40,141.8,89.1c37.1,38.9,73.7,90,108.7,151.7c59.6,104.8,94.7,205.8,95.1,206.8L730.3,1818.4z"/>
			</g>
			<g>
				<path class="st4" d="M791.4,1818.2c-0.4-1.2-36.1-124.1-62.3-291.4c-15.4-98.3-24.6-192.6-27.2-280.1
					c-3.3-109.6,3.5-208.9,20.4-295.3l9.7,1.9c-37.9,194.1-17.2,418.1,6.9,571.9c26.1,166.8,61.7,289.1,62,290.3L791.4,1818.2z"/>
			</g>
			<g>
				<path class="st4" d="M856.9,1818.2l-9.5-2.7c0.2-0.7,19.5-67.9,53.1-139.3c19.8-42.1,40.5-77.4,61.7-105.1
					c26.8-35,54.5-57.7,82.2-67.6c32-11.4,64.2-6,95.9,16l-5.7,8.2c-28.9-20.1-58.2-25.1-86.9-14.8
					c-46.8,16.7-94.6,74.6-138.2,167.4C876.3,1750.9,857.1,1817.5,856.9,1818.2z"/>
			</g>
			<g>
				<path class="st4" d="M904.8,1819.4l-8.5-5.2c0.3-0.5,33.5-54.9,61.4-92.9c13-17.8,31.2-21.3,47.2-24.3
					c20.9-4,34.7-6.7,33.4-37.1l-0.2-5.1c-1.7-39.2-2.8-65.1,10.7-78.1c7.2-6.9,17.7-9.6,33.1-8.4c16.7,1.3,31.9-1.4,46.6-4
					c22.4-4,43.7-7.8,65.1,4.4c1.9,1.1,3,1.3,3.5,1.4c0.7-2.1,0.2-9.6-5.8-22.5c-11.9-25.2-45.8-69.3-97.4-74.5
					c-86.3-8.7-96.8-4.4-123.1,26.5c-12.6,14.8-19.1,23.8-23.8,30.3c-10.2,14.1-11.8,16.2-43.6,35.7c-47.1,28.8-49.4,48.9-46.2,63.2
					c7.6,33.2-24.1,182.8-25.5,189.2l-9.7-2.1c11.3-53.1,31.2-160,25.5-184.9c-5.9-26.1,9.7-48.8,50.7-73.9
					c30.1-18.4,31.3-20.1,40.7-33c4.8-6.7,11.4-15.8,24.3-30.9c14.8-17.4,25.8-27.1,44.4-31.3c18.8-4.3,45.2-2.8,87.3,1.4
					c34.3,3.5,59.8,22.5,75.1,37.8c20,20,31.4,41.8,35.4,55.6c3.1,10.7,2.4,17.9-2.1,21.5c-2.5,2-7.1,3.4-14.5-0.8
					c-18.3-10.4-36.9-7.1-58.4-3.3c-14.6,2.6-31.1,5.6-49.1,4.2c-12.3-1-20.4,0.8-25.4,5.7c-10.3,10-9.2,35.4-7.7,70.6l0.2,5.1
					c1.7,39-20.2,43.2-41.4,47.3c-14.9,2.9-30.3,5.8-41.1,20.5C938.2,1764.8,905.2,1818.8,904.8,1819.4z"/>
			</g>
			<g>
				<path class="st4" d="M839,1728.3c-0.2-0.6-19.2-57.1-26.8-133.2c-3.7-37.2,7.1-59.3,16.7-78.8c11-22.4,20.5-41.8,10-80.7
					c-9.9-36.4-21.8-42-32.3-47c-5.8-2.8-11.8-5.6-16.6-12.6c-5-7.3-7.9-18.1-9.3-34.2c-2.8-32.7,8.1-45.7,17.7-57.2
					c10.7-12.8,19.2-23,7-60.8c-9.5-29.4-19.6-41.5-27.7-51.3c-12.8-15.4-21.3-25.6-15.4-78.8c4.8-42.8,19.2-60.6,29.8-73.6
					c11.2-13.8,18-22.2,8.8-52.4c-10.7-34.9-20.2-54.7-32-66.1c-13-12.6-29.2-15.2-52.6-8.2c-23,6.8-38.5,22.4-46.3,46.3
					c-7.2,22.5-7,51,0.7,82.7c7.1,29.2-5.3,63.7-18.4,100.1c-16.4,45.7-33.4,92.9-15.9,136.1c10,24.8,17.3,38.2,22.7,48
					c12.3,22.6,12.4,24,4.4,78.6c-2.9,20.1-5.5,34.5-7.4,45.1c-5.5,30.8-6,33.3,3.7,71l-9.6,2.5c-10.2-39.8-9.6-43.2-3.9-75.2
					c1.9-10.5,4.5-24.8,7.4-44.7c7.6-52.3,7.6-52.3-3.3-72.4c-5.1-9.4-12.9-23.7-23.2-49c-18.9-46.7-0.5-97.9,15.8-143.1
					c12.6-35,24.5-68.1,18.1-94.4c-8.1-33.4-8.3-63.9-0.5-88.1c8.7-26.8,26.9-45.1,52.9-52.8c26.9-8,46.7-4.6,62.3,10.6
					c13,12.6,23.3,33.7,34.5,70.3c10.8,35.3,1.4,46.9-10.6,61.6c-10.3,12.7-23.2,28.6-27.7,68.5c-5.4,48.9,1.6,57.4,13.2,71.3
					c8.7,10.4,19.5,23.4,29.5,54.6c13.9,43,2.3,56.8-8.8,70.2c-9.2,11-17.9,21.4-15.4,50c2.6,30.3,10,33.8,20.2,38.7
					c11.8,5.6,26.5,12.6,37.6,53.4c11.5,42.5,0.2,65.4-10.7,87.6c-9.4,19.2-19.2,39.1-15.7,73.4c7.5,74.9,26.1,130.4,26.3,131
					L839,1728.3z"/>
			</g>
			<g>
				<path class="st4" d="M691.9,1817.8c-19-87.9-46.7-113.9-71.1-136.8c-14.4-13.6-28.1-26.4-37.6-49.8
					c-4.2-10.4-7.8-19.3-10.9-27.2c-15.3-38.6-20-50.3-41-76.7c-10.8-13.6-18.7-14.4-30.6-15.6c-14.1-1.4-33.5-3.3-65-27.5
					c-34.2-26.2-33.2-46.1-32.6-59.3c0.2-4.2,0.4-7.4-0.8-9.4c-1.2-2.1-4.6-3.7-10.4-4.9c-10-2.1-23.6-2.4-36.8-2.7
					c-26.1-0.6-50.8-1.1-59.8-14.3c-4-5.9-4.3-13.6-0.9-22.8c5.3-14.1,16.5-24.4,32.5-29.9c27.8-9.5,67.7-3.4,97.1,14.7
					c16.2,10,27.5,6.2,40.5,1.8c16.8-5.7,35.8-12.1,65.1,11.2c22.6,17.9,30.9,39.1,37.6,56.1c8.8,22.3,14.2,35.8,43.1,34.4
					c37.2-1.8,45.2,27,53.6,57.5c6,21.7,12.8,46.2,30.5,65.4c44.4,48.2,81.8,226.2,83.4,233.8l-9.7,2c-0.4-1.8-38.4-182.8-81-229.1
					c-19.3-21-26.5-46.8-32.8-69.5c-9.2-33-15.7-51.6-43.6-50.2c-36,1.8-43.8-17.9-52.8-40.7c-6.6-16.7-14.1-35.7-34.6-51.9
					c-25.1-19.9-40-14.9-55.7-9.6c-13.5,4.6-28.8,9.7-48.9-2.8c-26.6-16.4-63.8-22.2-88.6-13.8c-13.3,4.5-22.2,12.6-26.4,24
					c-2.3,6.1-2.4,10.6-0.2,13.7c6.1,9,30.4,9.5,51.8,10c13.6,0.3,27.7,0.6,38.6,2.9c20,4.2,19.5,14.5,19,24.5
					c-0.6,11.8-1.4,27.9,28.7,50.9c29.3,22.5,46.3,24.2,60,25.5c12.8,1.3,23.9,2.4,37.3,19.3c22,27.6,27.1,40.6,42.5,79.2
					c3.1,7.9,6.7,16.8,10.9,27.1c8.7,21.4,21,33,35.2,46.3c25.5,23.9,54.3,51.1,74,142L691.9,1817.8z"/>
			</g>
		</g>
		<g>
			<g>
				<path class="st4" d="M2360.9,1802.7c-0.2-0.8-20.6-84.1-60.1-172.3c-36.3-81-96.7-182.9-178-208.4l2.4-7.7
					c37.3,11.7,73.4,39.5,107.2,82.6c26.8,34.2,52.3,78,75.8,130.3c39.9,88.9,60.4,172.8,60.6,173.6L2360.9,1802.7z"/>
			</g>
			<g>
				<path class="st4" d="M2410,1807.2c-0.2-1-19.5-102.6-27.7-239.2c-4.8-80.3-4.9-156.8-0.4-227.4c5.7-88.4,18.9-167.8,39.1-236
					l7.7,2.3c-45.4,153.2-46,335.1-38.4,460.6c8.2,136.1,27.4,237.2,27.5,238.2L2410,1807.2z"/>
			</g>
			<g>
				<path class="st4" d="M2462.8,1812.3l-7.5-2.9c0.2-0.5,20.9-53.1,53.4-108c19.1-32.3,38.6-59.2,57.7-79.8
					c24.2-26.1,48.2-42.2,71.3-48.1c26.6-6.7,52.1,0.1,75.9,20.2l-5.2,6.1c-21.7-18.4-44.9-24.6-68.8-18.6
					c-39,9.8-81.9,52.8-124.1,124.1C2483.5,1759.8,2463,1811.8,2462.8,1812.3z"/>
			</g>
			<g>
				<path class="st4" d="M2501.2,1816.9l-6.4-4.8c0.3-0.4,31.2-41.6,56.5-70c11.8-13.3,26.7-14.7,39.8-15.9
					c17.1-1.6,28.4-2.7,29.7-27.3l0.2-4.1c1.7-31.7,2.8-52.6,14.6-62c6.3-5,15-6.4,27.2-4.2c13.4,2.3,25.8,1.3,37.8,0.3
					c18.4-1.5,35.7-2.9,52,8.6c1.4,1,2.3,1.3,2.7,1.4c0.7-1.6,0.9-7.7-3-18.5c-7.6-21.2-31.5-59.3-72.6-67.4
					c-68.7-13.7-77.5-11-101.1,11.8c-11.3,11-17.2,17.7-21.5,22.5c-9.3,10.5-10.7,12.2-37.8,25.3c-40.1,19.5-43.5,35.5-42,47.3
					c3.5,27.3-33.5,145.2-35,150.2l-7.6-2.4c13.2-41.8,37.4-126.3,34.7-146.8c-2.8-21.4,11.6-38.5,46.4-55.5
					c25.6-12.5,26.8-13.7,35.3-23.4c4.4-5,10.4-11.8,21.9-23c13.3-12.9,22.8-19.8,38.1-21.8c15.4-2,36.6,1.2,70.1,7.9
					c27.3,5.4,46.4,22.7,57.5,36.2c14.5,17.6,22,36,24.2,47.4c1.7,8.8,0.5,14.6-3.4,17.1c-2.2,1.4-5.9,2.2-11.6-1.8
					c-13.9-9.8-29.1-8.6-46.7-7.1c-11.9,1-25.4,2.1-39.8-0.4c-9.9-1.7-16.5-0.9-20.9,2.6c-9.1,7.2-10.1,27.8-11.6,56.2l-0.2,4.1
					c-1.7,31.5-19.6,33.2-37,34.8c-12.2,1.2-24.9,2.4-34.6,13.3C2532.2,1775.6,2501.5,1816.5,2501.2,1816.9z"/>
			</g>
			<g>
				<path class="st4" d="M2455.2,1738.6c-0.1-0.5-11-47.4-11.3-109.2c-0.1-30.2,10.3-47.2,19.5-62.1c10.6-17.2,19.7-32.1,14.2-64.1
					c-5.1-30-14.3-35.5-22.3-40.3c-10.6-6.3-17.5-12.5-17.2-39.6c0.3-26.5,10-36.2,18.6-44.7c9.6-9.5,17.2-17,10.3-48.3
					c-5.4-24.4-12.6-34.9-18.4-43.4c-9.1-13.4-15.2-22.2-6.4-64.6c7.1-34,20.1-47.3,29.6-56.9c10.1-10.3,16.2-16.5,11.1-41.5
					c-5.9-28.9-12.1-45.6-20.6-55.6c-9.5-11.2-22.3-14.4-41.7-10.7c-19,3.7-32.7,15.1-40.8,33.7c-7.6,17.5-9.6,40.5-5.8,66.6
					c3.4,24-9.2,50.8-22.5,79.1c-16.7,35.5-34,72.1-23.2,108.2c6.2,20.7,11,32.1,14.5,40.4c8.1,19.1,8.1,20.3-2.5,63.6
					c-3.9,15.9-7.1,27.3-9.4,35.7c-6.8,24.3-7.4,26.3-2.5,57.4l-7.9,1.2c-5.2-32.8-4.4-35.5,2.7-60.8c2.3-8.3,5.5-19.6,9.4-35.4
					c10.2-41.5,10.2-41.5,2.9-58.5c-3.4-8-8.6-20-14.9-41.2c-11.6-39,7.1-78.8,23.7-113.9c12.8-27.2,24.9-52.9,21.8-74.6
					c-3.9-27.5-1.7-52,6.4-70.9c9-20.9,25.1-34.2,46.6-38.4c22.2-4.3,37.9-0.1,49.3,13.3c9.5,11.2,16.2,28.9,22.4,59.2
					c6,29.2-2.5,37.8-13.2,48.7c-9.3,9.4-20.9,21.2-27.5,52.9c-8.1,39-3.1,46.3,5.1,58.4c6.2,9.1,13.9,20.3,19.6,46.2
					c7.8,35.7-2.5,45.9-12.5,55.8c-8.2,8.2-16,15.9-16.3,39.1c-0.2,24.6,5.4,28,13.3,32.7c9.1,5.4,20.4,12.2,26.1,45.8
					c6,35-4.8,52.6-15.3,69.7c-9.1,14.7-18.4,29.9-18.3,57.9c0.3,60.8,11,106.9,11.1,107.4L2455.2,1738.6z"/>
			</g>
			<g>
				<path class="st4" d="M2391.6,1805.2c-0.2-1.5-16.9-150-47.5-190.5c-13.9-18.4-17.7-39.7-21-58.4c-4.8-27.2-8.7-42.7-31.2-43.7
					c-29.1-1.3-33.9-17.8-39.4-36.8c-4-14-8.6-29.8-23.8-44.4c-18.6-17.9-31-15.1-44.1-12c-11.2,2.6-23.9,5.6-39.1-6
					c-20.1-15.3-49.6-22.8-70.2-17.9c-11,2.6-18.8,8.4-23.1,17.2c-2.3,4.7-2.7,8.3-1.2,11c4.2,7.7,23.7,10,40.9,12
					c10.9,1.3,22.2,2.6,30.9,5.3c15.8,4.9,14.6,13.2,13.4,21.2c-1.4,9.4-3.3,22.3,19.2,43.2c21.8,20.3,35.4,23,46.3,25.2
					c10.2,2,19,3.8,28.5,18.4c15.5,23.9,18.7,34.7,28.1,67c1.9,6.6,4.1,14,6.6,22.6c5.4,17.9,14.3,28.1,24.7,40
					c18.6,21.2,39.8,45.2,48.6,119.9l-8,0.9c-8.6-72.2-28.8-95.2-46.7-115.5c-10.6-12-20.5-23.4-26.4-43c-2.6-8.7-4.8-16.1-6.7-22.7
					c-9.4-32.3-12.2-42-27.1-64.9c-7.7-11.8-13.9-13-23.4-14.9c-11.2-2.2-26.7-5.3-50.2-27.1c-25.5-23.7-23.2-39.7-21.6-50.2
					c1.1-7.5,1.4-9.5-7.9-12.4c-7.9-2.5-18.8-3.8-29.4-5c-21-2.4-40.8-4.8-47-16.1c-2.8-5.1-2.4-11.3,1.1-18.4
					c5.3-10.9,15.2-18.4,28.4-21.5c23.1-5.5,54.7,2.4,76.9,19.3c12.2,9.3,21.6,7.1,32.4,4.6c13.9-3.3,29.7-6.9,51.5,14
					c16.8,16.1,21.9,33.8,26,48c5.4,18.7,8.6,29.9,32,31c30,1.4,34.2,25.2,38.7,50.3c3.2,17.9,6.8,38.2,19.5,55
					c32,42.2,48.4,188.2,49.1,194.4L2391.6,1805.2z"/>
			</g>
		</g>
		<g>
			<g>
				<path class="st4" d="M2544.6,900.2c-12.9,0-23.3-10.5-23.3-23.3s10.4-23.3,23.3-23.3s23.3,10.5,23.3,23.3
					C2567.9,889.7,2557.5,900.2,2544.6,900.2z M2544.6,863.5c-7.4,0-13.4,6-13.4,13.4s6,13.4,13.4,13.4s13.4-6,13.4-13.4
					S2552,863.5,2544.6,863.5z"/>
			</g>
			<g>
				<path class="st4" d="M1523,638.8c-2.5,0-5-0.5-7.4-1.4c-5-2-8.9-5.8-11.1-10.8c-4.4-10.2,0.3-22.1,10.5-26.5
					c10.2-4.4,22.1,0.3,26.5,10.5l0,0c4.4,10.2-0.3,22.1-10.5,26.5C1528.4,638.2,1525.7,638.8,1523,638.8z M1523,608.3
					c-1.3,0-2.7,0.3-4.1,0.8c-2.5,1.1-4.5,3.1-5.5,5.6c-1,2.5-1,5.3,0.1,7.8c1.1,2.5,3.1,4.5,5.6,5.5c2.6,1,5.3,1,7.8-0.1
					c5.2-2.2,7.6-8.3,5.4-13.5l0,0C1530.8,610.6,1527,608.3,1523,608.3z"/>
			</g>
			<g>
				<path class="st4" d="M1319.7,265.3c-4.1,0-8.1-0.9-11.9-2.5c-14.9-6.6-21.6-24-15-38.9c3.2-7.2,9-12.7,16.3-15.6
					c7.3-2.8,15.3-2.6,22.6,0.5c14.9,6.6,21.6,24,15,38.9l0,0c-3.2,7.2-9,12.7-16.3,15.6C1326.9,264.7,1323.3,265.3,1319.7,265.3z
					 M1319.7,216.3c-2.4,0-4.8,0.4-7.1,1.3c-4.9,1.9-8.7,5.6-10.8,10.3c-4.4,9.9,0.1,21.4,10,25.8c4.8,2.1,10.1,2.2,15,0.4
					s8.7-5.6,10.8-10.3c4.4-9.9-0.1-21.4-10-25.8C1325.1,216.9,1322.4,216.3,1319.7,216.3z"/>
			</g>
			<g>
				<path class="st4" d="M642,699.7c-3.2,0-6.3-0.6-9.3-1.8c-6.3-2.5-11.2-7.3-13.9-13.5c-5.5-12.8,0.4-27.7,13.2-33.2
					c12.8-5.5,27.7,0.4,33.2,13.2c2.7,6.2,2.8,13.1,0.3,19.4c-2.5,6.3-7.3,11.2-13.5,13.9C648.8,699,645.4,699.7,642,699.7z
					 M642,659c-2.1,0-4.1,0.4-6.1,1.3c-3.8,1.6-6.7,4.6-8.2,8.5c-1.5,3.8-1.5,8,0.2,11.8s4.6,6.7,8.4,8.2c3.8,1.5,8,1.5,11.8-0.2
					s6.7-4.6,8.2-8.4c1.5-3.8,1.5-8-0.2-11.8s-4.6-6.7-8.5-8.2C645.8,659.3,643.9,659,642,659z"/>
			</g>
			<g>
				<g>
					<g class="st5">
						<g>
							<path class="st4" d="M2677.9,1077.2c3.9,1.5,8.9,1.6,13,0.3l33.1,19.1l-87.7,51l-33.1-19.1c2.2-2.3,2-5.3-0.7-7.5l-2.3,1.3
								l-3.3-1.9l2.3-1.3c-3.9-1.5-8.9-1.6-12.9-0.3l-111.8-64.5l35.4-20.6c4.7,1.5,10.8,1.1,14.8-1.2c4-2.3,4.7-5.8,2.1-8.5
								l35.4-20.6l111.8,64.5c-2.2,2.3-2,5.3,0.6,7.5l2.3-1.3l3.3,1.9L2677.9,1077.2L2677.9,1077.2z M2733.7,1096.7l-42.6-24.6
								l-2.4,1.4c-2.1,1.2-5.6,1.2-7.7,0s-2.1-3.2,0-4.5l2.4-1.4l-121.3-70l-44.9,26.1l2.5,1.4c2.1,1.2,2.2,3.2,0,4.5
								c-2.1,1.2-5.6,1.2-7.7,0l-2.5-1.4l-44.9,26.1l121.3,70l2.4-1.4c2.1-1.2,5.6-1.2,7.8,0c2.1,1.2,2.1,3.2,0,4.5l-2.4,1.4
								l42.6,24.6L2733.7,1096.7L2733.7,1096.7z"/>
							<polygon class="st4" points="2602.6,1120.9 2599.3,1119 2599.1,1119.1 2596.9,1120.5 2600.2,1122.4 2602.5,1121 							"/>
							<path class="st4" d="M2612.6,1115.1l-3.3-1.9l-5,2.9l3.3,1.9L2612.6,1115.1L2612.6,1115.1z M2622.6,1109.3l-3.3-1.9l-5,2.9
								l3.3,1.9L2622.6,1109.3L2622.6,1109.3z M2632.6,1103.5l-3.3-1.9l-5,2.9l3.3,1.9L2632.6,1103.5L2632.6,1103.5z M2642.7,1097.7
								l-3.3-1.9l-5,2.9l3.3,1.9L2642.7,1097.7L2642.7,1097.7z M2652.7,1091.9l-3.3-1.9l-5,2.9l3.3,1.9L2652.7,1091.9L2652.7,1091.9
								z M2662.7,1086.1l-3.3-1.9l-5,2.9l3.3,1.9L2662.7,1086.1L2662.7,1086.1z M2672.7,1080.2l-3.3-1.9l-5,2.9l3.3,1.9
								L2672.7,1080.2L2672.7,1080.2z"/>
							<polygon class="st4" points="2680.1,1075.9 2676.8,1074 2674.5,1075.3 2674.4,1075.4 2677.7,1077.3 2677.9,1077.2 							"/>
							<path class="st4" d="M2567.8,1084.8c-2.1-1.2-1.9-2.5,0.7-4l15.9-9.2c2.5-1.5,4.8-1.6,6.9-0.4c2.1,1.2,1.8,2.5-0.7,4
								l-15.9,9.2C2572.2,1085.9,2569.9,1086,2567.8,1084.8L2567.8,1084.8z M2596.7,1068.1c-3-1.7-6.1-2.6-9.3-2.5
								c-3.2,0.1-6.4,1-9.5,2.8l-15,8.7c-3.1,1.8-4.7,3.6-4.8,5.5c-0.1,1.9,1.3,3.7,4.3,5.4s6.1,2.6,9.3,2.5s6.4-1,9.5-2.8l15-8.7
								c3.1-1.8,4.7-3.6,4.8-5.5C2601.1,1071.6,2599.7,1069.8,2596.7,1068.1L2596.7,1068.1z M2624.9,1053.4l-6.1-3.5l-83.6,21.4
								l6.1,3.5L2624.9,1053.4L2624.9,1053.4z M2568.9,1053.5c-2.1-1.2-1.9-2.5,0.7-4l15.9-9.2c2.5-1.5,4.8-1.6,6.9-0.4
								c2.1,1.2,1.8,2.5-0.7,4l-15.9,9.2C2573.2,1054.5,2570.9,1054.7,2568.9,1053.5L2568.9,1053.5z M2597.7,1036.7
								c-3-1.7-6.1-2.6-9.3-2.5c-3.2,0.1-6.4,1-9.4,2.8l-15,8.7c-3.1,1.8-4.7,3.6-4.8,5.5c-0.1,1.9,1.3,3.7,4.4,5.4
								c3,1.7,6.1,2.6,9.3,2.5c3.2-0.1,6.4-1,9.4-2.8l15-8.7c3.1-1.8,4.7-3.6,4.8-5.5C2602.2,1040.2,2600.7,1038.4,2597.7,1036.7
								L2597.7,1036.7z"/>
						</g>
					</g>
				</g>
				<g>
					<g class="st5">
						<g>
							<path class="st4" d="M1800.3,274.7c0.9,1.4,1.2,2.5,0.9,3.2c-0.3,0.6-0.9,0.8-2,0.8l76.6,95.6l33.2,10.9
								c-1.5-2.8-0.2-4.1,3.5-2.9c2.2,0.7,4.8,2.2,7.6,4.1c1.7,1.2,3.3,2.6,4.7,3.9l33.2,10.9l-76.6-95.6c-1.6-0.8-3.3-1.8-4.9-3
								l-0.1-0.1c-2-1.5-3.9-3.1-5.4-4.6l2.1,0.7l-2.3-2.8l-2.1-0.7c-1.7-2.6-1.2-4.1,1.1-3.9l-22.7-28.3l-82.2-26.9l22.7,28.3
								c1.5,0.7,3.2,1.8,4.8,2.9c0.1,0.1,0.2,0.1,0.3,0.2c2,1.5,3.9,3.1,5.4,4.6l-2.2-0.7l2.3,2.8L1800.3,274.7L1800.3,274.7z
								 M1874.5,377l-83.1-103.8l2.3,0.8c1,0.3,1.6,0.3,1.8-0.1c0.2-0.4-0.1-1.1-0.8-2c-0.7-0.9-1.8-1.9-2.9-2.7c0,0,0,0-0.1,0
								c-1.2-0.9-2.3-1.5-3.3-1.8l-2.3-0.8l-29.2-36.5l91.4,29.9l29.2,36.5l-2.3-0.8c-2-0.6-2.4,0.3-1,2.1c0.7,0.9,1.7,1.8,2.9,2.7
								l0,0c1.2,0.8,2.3,1.5,3.3,1.8l2.3,0.7l83.1,103.8l-42.1-13.7l-1.7-2.1c-0.7-0.9-1.8-1.8-2.9-2.7c-1.1-0.8-2.4-1.5-3.3-1.8
								c-2-0.7-2.4,0.3-1,2.1l1.7,2.1L1874.5,377L1874.5,377z"/>
							<polygon class="st4" points="1798.2,274 1795.9,271.2 1798.1,271.9 1798.2,272 1800.5,274.8 1800.3,274.7 							"/>
							<path class="st4" d="M1861.5,294.7l-2.3-2.8l4.7,1.5l2.3,2.8L1861.5,294.7L1861.5,294.7z M1852.1,291.6l-2.3-2.8l4.7,1.5
								l2.3,2.8L1852.1,291.6L1852.1,291.6z M1842.7,288.6l-2.3-2.8l4.7,1.5l2.3,2.8L1842.7,288.6L1842.7,288.6z M1833.3,285.5
								l-2.3-2.8l4.7,1.5l2.3,2.8L1833.3,285.5L1833.3,285.5z M1823.9,282.5l-2.3-2.8l4.7,1.5l2.3,2.8L1823.9,282.5L1823.9,282.5z
								 M1814.6,279.4l-2.3-2.8l4.7,1.5l2.3,2.8L1814.6,279.4L1814.6,279.4z M1805.2,276.3l-2.3-2.8l4.7,1.5l2.3,2.8L1805.2,276.3
								L1805.2,276.3z"/>
							<polygon class="st4" points="1870.8,297.8 1868.6,295 1868.8,295 1870.9,295.7 1873.2,298.5 1871,297.8 							"/>
							<path class="st4" d="M1908.3,354c-1-0.7-2.2-1.3-3.4-1.7l-14.9-4.9c-2.4-0.8-2.8-0.3-1.4,1.5c0.7,0.8,1.4,1.5,2.2,2.1
								c1,0.7,2.2,1.3,3.5,1.7l14.9,4.9c2.4,0.8,2.8,0.3,1.4-1.5C1909.9,355.4,1909.1,354.6,1908.3,354L1908.3,354z M1890.2,353.7
								c-2.5-1.8-4.8-3.9-6.8-6.4c-2.1-2.6-2.8-4.3-2.3-5.1c0.5-0.8,2.2-0.8,5.1,0.2l14.1,4.6c2.9,1,5.7,2.4,8.3,4.2
								c0.1,0.1,0.2,0.1,0.3,0.2c2.5,1.8,4.8,3.9,6.8,6.4c2.1,2.6,2.8,4.3,2.3,5.1c-0.5,0.8-2.2,0.8-5.1-0.2l-14.1-4.6
								c-2.9-1-5.7-2.4-8.3-4.2C1890.4,353.9,1890.3,353.8,1890.2,353.7L1890.2,353.7z M1864.3,322.9c-1-0.7-2.2-1.3-3.4-1.7
								l-14.9-4.9c-2.4-0.8-2.8-0.3-1.4,1.5c0.6,0.8,1.4,1.5,2.2,2.1c1,0.7,2.2,1.3,3.4,1.7l14.9,4.9c2.4,0.8,2.8,0.3,1.4-1.5
								C1865.8,324.2,1865.1,323.5,1864.3,322.9L1864.3,322.9z M1846.2,322.6c-2.5-1.8-4.8-4-6.8-6.5c-2.1-2.6-2.8-4.2-2.3-5.1
								c0.5-0.8,2.2-0.8,5.1,0.2l14.1,4.6c2.9,0.9,5.7,2.3,8.3,4.2c0.1,0,0.1,0.1,0.2,0.1c2.5,1.8,4.8,4,6.8,6.5
								c2.1,2.6,2.8,4.3,2.3,5.1c-0.5,0.8-2.2,0.8-5.1-0.2l-14.1-4.6c-2.9-1-5.7-2.3-8.3-4.2
								C1846.3,322.7,1846.3,322.6,1846.2,322.6L1846.2,322.6z M1859.4,340.4l-4.2-5.2l40.3-1.6l4.2,5.2L1859.4,340.4L1859.4,340.4z
								"/>
						</g>
					</g>
				</g>
				<g>
					<g class="st5">
						<g>
							<path class="st4" d="M1270.7,720.5c-1.3,0.7-4.6-0.3-8.4-2.6l-6.5,12.4l100.6,73l6.5-12.4c-1.5-1.3-2.8-2.7-3.9-4
								c-1.2-1.5-1.8-2.8-1.9-3.7l2.6,1.9l0.7-1.2l-2.6-1.9c1.3-0.7,4.6,0.3,8.4,2.6l21.9-41.9l-40.7-29.5
								c-1.9,0.5-6.1-1.2-10.6-4.4l-0.3-0.2c-2.7-1.9-5-4.1-6.6-6.1c-1-1.3-1.6-2.4-1.8-3.3l-40.6-29.5l-21.8,41.9
								c1.5,1.3,2.8,2.7,3.8,3.9c1.2,1.5,1.8,2.8,1.9,3.7l-2.6-1.9l-0.7,1.2L1270.7,720.5L1270.7,720.5z M1361.1,809.3l-111.8-81.2
								l8.3-16l2.8,2l0.1,0.1c2.4,1.7,4.7,2.5,5.1,1.7c0.2-0.4-0.1-1.1-0.8-2c-0.7-0.9-1.7-1.8-2.9-2.7l-2.8-2l23.7-45.4l51.5,37.4
								l-0.5,0.9c-0.2,0.4,0.1,1.1,0.8,2c0.7,0.9,1.7,1.8,2.9,2.7c0,0,0.1,0.1,0.1,0.1c2.3,1.7,4.7,2.5,5.1,1.7l0.5-0.9l51.5,37.4
								l-23.7,45.4l-2.8-2c0,0,0,0,0,0c-2.4-1.7-4.7-2.5-5.1-1.7c-0.2,0.4,0.1,1.1,0.8,2c0.7,0.9,1.7,1.8,2.9,2.7l2.8,2
								L1361.1,809.3L1361.1,809.3z"/>
							<polygon class="st4" points="1359.8,785.2 1357.2,783.3 1357,783.2 1357.6,781.9 1357.8,782.1 1360.5,784 							"/>
							<path class="st4" d="M1282.4,729l-5.8-4.2l0.7-1.2l5.8,4.2L1282.4,729L1282.4,729z M1293.9,737.3l-5.7-4.2l0.7-1.2l5.7,4.2
								L1293.9,737.3L1293.9,737.3z M1305.4,745.7l-5.7-4.2l0.7-1.2l5.7,4.2L1305.4,745.7L1305.4,745.7z M1316.8,754l-5.7-4.2
								l0.7-1.2l5.7,4.2L1316.8,754L1316.8,754z M1328.3,762.3l-5.7-4.2l0.7-1.2l5.7,4.2L1328.3,762.3L1328.3,762.3z M1339.8,770.7
								l-5.7-4.2l0.6-1.2l5.8,4.2L1339.8,770.7L1339.8,770.7z M1351.3,779l-5.8-4.2l0.7-1.2l5.8,4.2L1351.3,779L1351.3,779z"/>
							<polygon class="st4" points="1270.9,720.7 1270.7,720.5 1268.1,718.6 1268.8,717.4 1271.4,719.3 1271.6,719.5 							"/>
							<path class="st4" d="M1302,702.8c-2.7-1.9-4.3-2.5-4.7-1.8c-0.4,0.8,0.8,2.2,3.7,4.3l18.2,13.2c0.1,0.1,0.2,0.1,0.2,0.2
								c2.7,2,4.3,2.6,4.7,1.8c0.4-0.8-0.8-2.2-3.7-4.3l-18.2-13.2C1302.2,702.9,1302.1,702.8,1302,702.8L1302,702.8z M1318.1,720.8
								c-0.2-0.1-0.3-0.2-0.5-0.4l-17.2-12.5c-3.6-2.6-6.1-4.8-7.7-6.8c-1.6-2-2.1-3.5-1.5-4.6c0.6-1.1,2-1.3,4.2-0.5
								c2.1,0.8,4.8,2.3,8.1,4.6c0.2,0.1,0.4,0.3,0.6,0.4l17.3,12.5c3.6,2.6,6.1,4.8,7.7,6.8c1.6,2,2.1,3.5,1.5,4.6
								c-0.6,1.1-2,1.3-4.2,0.5C1324.1,724.8,1321.4,723.2,1318.1,720.8L1318.1,720.8z M1286.6,707.7l1.2-2.3l73.6,41.3l-1.2,2.3
								L1286.6,707.7L1286.6,707.7z M1328.4,735.7c-2.7-1.9-4.3-2.5-4.6-1.8c-0.4,0.8,0.8,2.2,3.7,4.3l18.2,13.2
								c0.1,0.1,0.2,0.1,0.2,0.2c2.7,2,4.3,2.5,4.7,1.8c0.4-0.8-0.8-2.2-3.7-4.3l-18.2-13.2C1328.6,735.8,1328.5,735.8,1328.4,735.7
								L1328.4,735.7z M1344.6,753.8c-0.2-0.1-0.4-0.3-0.6-0.4l-17.3-12.5c-3.5-2.6-6.1-4.8-7.7-6.8c-1.6-2-2.1-3.5-1.5-4.6
								c0.6-1.1,2-1.3,4.2-0.5c2.1,0.7,4.8,2.3,8.1,4.6c0.2,0.1,0.4,0.3,0.6,0.4l17.2,12.5c3.6,2.6,6.1,4.8,7.7,6.8
								c1.6,2,2.1,3.5,1.5,4.6c-0.6,1.1-2,1.3-4.2,0.5C1350.6,757.7,1347.9,756.1,1344.6,753.8L1344.6,753.8z"/>
						</g>
					</g>
				</g>
				<g>
					<g class="st5">
						<g>
							<path class="st4" d="M908,586.1c4.6,0.8,8.4,2.9,9.9,5.2l46.3,3.7l-5.5-63.5l-46.3-3.7c-1.1,2.2-4.6,3.6-9.1,3.7l-0.1-1.7
								l-4.7-0.4l0.1,1.7c-4.6-0.8-8.4-2.8-9.8-5.2l-156.3-12.6l2.2,25.7c5.2,1.2,9.1,3.9,9.4,6.8c0.2,2.9-3.3,5-8.3,5.4l2.2,25.7
								l156.3,12.6c1.1-2.2,4.6-3.6,9.1-3.7l0.1,1.7l4.7,0.4L908,586.1L908,586.1z M971.4,599.1l-59.6-4.8l-0.2-1.8
								c-0.1-1.5-2.7-3-5.7-3.2c-3-0.2-5.3,0.8-5.2,2.4l0.2,1.8l-169.6-13.7l-2.8-32.5l3.4,0.3c3,0.2,5.3-0.8,5.2-2.4
								c-0.1-1.5-2.7-3-5.7-3.2l-3.4-0.3l-2.8-32.5l169.6,13.7l0.2,1.8c0.1,1.5,2.7,3,5.7,3.2c3,0.2,5.3-0.8,5.2-2.4l-0.2-1.8
								l59.6,4.8L971.4,599.1L971.4,599.1z"/>
							<polygon class="st4" points="903.3,531.6 898.7,531.2 898.7,531.1 898.5,529.5 903.2,529.8 903.3,531.5 							"/>
							<path class="st4" d="M904,538.8l-4.7-0.4l-0.3-3.6l4.7,0.4L904,538.8L904,538.8z M904.6,546.1l-4.7-0.4l-0.3-3.6l4.7,0.4
								L904.6,546.1L904.6,546.1z M905.2,553.3l-4.7-0.4l-0.3-3.6l4.5,0.4L905.2,553.3L905.2,553.3z M905.8,560.6l-4.7-0.4l-0.3-3.6
								l4.7,0.4L905.8,560.6L905.8,560.6z M906.5,567.8l-4.7-0.4l-0.3-3.6l4.7,0.4L906.5,567.8L906.5,567.8z M907.1,575.1l-4.7-0.4
								l-0.3-3.6l4.7,0.4L907.1,575.1L907.1,575.1z M907.7,582.3l-4.7-0.4l-0.3-3.6l4.7,0.4L907.7,582.3L907.7,582.3z"/>
							<polygon class="st4" points="908.2,587.7 903.5,587.3 903.4,585.7 903.4,585.6 908,585.9 908,586.1 							"/>
							<path class="st4" d="M836.2,536.1c-2.9-0.2-4.3,0.6-4.1,2.4l1,11.5c0.2,1.8,1.7,2.8,4.6,3.1c2.9,0.2,4.3-0.6,4.1-2.4l-1-11.5
								C840.6,537.4,839.1,536.4,836.2,536.1L836.2,536.1z M838,557c-4.2-0.3-7.4-1.2-9.7-2.6c-2.3-1.4-3.5-3.2-3.7-5.4l-0.9-10.9
								c-0.2-2.2,0.7-3.9,2.8-4.9c2.1-1,5.2-1.4,9.4-1c4.2,0.3,7.4,1.2,9.7,2.6c2.3,1.4,3.5,3.2,3.7,5.4l0.9,10.9
								c0.2,2.2-0.7,3.9-2.8,4.9C845.3,557,842.2,557.4,838,557L838,557z M841.7,576.5l-8.5-0.7l-36.5-46.2l8.5,0.7L841.7,576.5
								L841.7,576.5z M800.8,553.1c-2.9-0.2-4.3,0.6-4.1,2.4l1,11.5c0.2,1.8,1.7,2.8,4.6,3.1c2.9,0.2,4.3-0.6,4.1-2.4l-1-11.5
								C805.2,554.4,803.7,553.3,800.8,553.1L800.8,553.1z M802.6,574c-4.2-0.3-7.4-1.2-9.7-2.6c-2.3-1.4-3.5-3.2-3.7-5.4l-0.9-10.9
								c-0.2-2.2,0.8-3.9,2.8-4.9c2.1-1,5.2-1.4,9.4-1c4.2,0.3,7.4,1.2,9.7,2.6c2.3,1.4,3.5,3.2,3.7,5.4l0.9,10.9
								c0.2,2.2-0.7,3.9-2.8,4.9C809.9,574,806.8,574.3,802.6,574L802.6,574z"/>
						</g>
					</g>
				</g>
				<g>
					<g class="st5">
						<g>
							<path class="st4" d="M1277.6,362.1c2.8-0.8,4-3.6,3.1-7.3l32.1-0.1l50.2,103.8l-32.1,0.1c-2.7-3.7-6.6-6.5-10.1-7.2l1.3,2.7
								l-3.2,0l-1.3-2.7c-2.8,0.8-3.9,3.6-3.1,7.3l-108.2,0.5l-20.3-41.9c2.9-1.3,3.6-5.3,1.3-10c-2.3-4.7-6.8-8.7-10.9-9.9
								l-20.3-41.9l108.2-0.5c2.7,3.7,6.6,6.5,10.1,7.2l-1.3-2.7l3.2,0L1277.6,362.1L1277.6,362.1z M1314.7,348.9l-41.2,0.2l1.4,2.9
								c1.2,2.5,0.5,4.6-1.6,4.6c-2.1,0-4.7-2-5.9-4.6l-1.4-2.9l-117.4,0.5l25.7,53.1l2.4,0c2.1,0,4.8,2,6,4.6
								c1.2,2.5,0.5,4.6-1.6,4.6l-2.4,0l25.7,53.1l117.4-0.5l-1.4-2.9c-1.2-2.5-0.5-4.6,1.5-4.6c2.1,0,4.8,2,6,4.5l1.4,2.9l41.2-0.2
								L1314.7,348.9L1314.7,348.9z"/>
							<polygon class="st4" points="1320.6,451.1 1317.4,451.1 1317.5,451.3 1318.8,454 1322,454 1320.7,451.3 							"/>
							<path class="st4" d="M1314.9,439.2l-3.2,0l2.9,5.9l3.2,0L1314.9,439.2L1314.9,439.2z M1309.1,427.4l-3.2,0l2.9,5.9l3.2,0
								L1309.1,427.4L1309.1,427.4z M1303.4,415.6l-3.2,0l2.9,5.9l3.2,0L1303.4,415.6L1303.4,415.6z M1297.7,403.8l-3.2,0l2.9,5.9
								l3.2,0L1297.7,403.8L1297.7,403.8z M1292,391.9l-3.2,0l2.9,5.9l3.2,0L1292,391.9L1292,391.9z M1286.2,380.1l-3.2,0l2.9,5.9
								l3.2,0L1286.2,380.1L1286.2,380.1z M1280.5,368.2l-3.2,0l2.9,5.9l3.2,0L1280.5,368.2L1280.5,368.2z"/>
							<polygon class="st4" points="1276.3,359.4 1273.1,359.4 1274.4,362.1 1274.5,362.3 1277.7,362.3 1277.6,362.1 							"/>
							<path class="st4" d="M1265.6,435c-2,0-3.7-1.5-5.2-4.5l-9.1-18.8c-1.4-3-1.2-4.5,0.9-4.5s3.7,1.5,5.2,4.5l9.1,18.8
								C1267.9,433.5,1267.6,435,1265.6,435L1265.6,435z M1249.1,400.8c-2.9,0-4.6,1-5.2,3c-0.5,2,0.1,4.8,1.8,8.5l8.6,17.8
								c1.8,3.6,3.9,6.5,6.3,8.4c2.4,2,5.1,2.9,8,2.9c2.9,0,4.6-1,5.2-3c0.6-2-0.1-4.8-1.8-8.4l-8.6-17.8c-1.8-3.7-3.9-6.5-6.3-8.4
								C1254.7,401.8,1252,400.8,1249.1,400.8L1249.1,400.8z M1235.2,369.2l-5.9,0l11.7,71.3l5.9,0L1235.2,369.2L1235.2,369.2z
								 M1224.1,402.4c-2,0-3.7-1.5-5.2-4.5l-9.1-18.8c-1.4-3-1.2-4.5,0.9-4.5s3.7,1.5,5.2,4.5l9.1,18.8
								C1226.4,400.9,1226.1,402.4,1224.1,402.4L1224.1,402.4z M1207.6,368.3c-2.9,0-4.6,1-5.2,3c-0.6,2,0,4.8,1.8,8.4l8.6,17.8
								c1.8,3.7,3.9,6.5,6.3,8.4c2.5,2,5.1,3,8,2.9c2.9,0,4.6-1,5.2-3c0.6-2,0-4.8-1.8-8.4l-8.6-17.8c-1.8-3.7-3.9-6.5-6.3-8.4
								C1213.2,369.2,1210.5,368.3,1207.6,368.3L1207.6,368.3z"/>
						</g>
					</g>
				</g>
				<g>
					<g class="st5">
						<g>
							<path class="st4" d="M418,799.4c2.3,0,4-1.1,4.6-3.2c1-3.4-1.1-8.5-4.8-12.3l9.1-30.5l122.2,90.2c0.1,1.5,0.6,3.2,1.5,5
								c1.1,2.1,2.6,4.1,4.4,5.8l0.6-2l3.6,2.7l-0.6,2c1.9,1.1,3.8,1.6,5.4,1.6c1.5,0,2.8-0.5,3.6-1.4l36.2,26.7l-22.5,75.5
								l-36.2-26.7c-0.1-1.5-0.6-3.3-1.5-5c-1.1-2.1-2.6-4.1-4.4-5.8l-0.6,2l-3.6-2.7l0.6-2c-1.9-1.1-3.8-1.6-5.4-1.6
								c-1.5,0-2.8,0.5-3.6,1.4l-122.2-90.2l9.1-30.5C415.1,799.1,416.6,799.4,418,799.4L418,799.4z M422.8,745.2l-11.5,38.6l2.7,2
								c2.3,1.7,3.8,4.6,3.3,6.5c-0.3,0.9-1,1.4-2,1.4c-0.9,0-2.1-0.4-3.2-1.2l-2.7-2l-11.5,38.6l132.6,97.8l0.6-2.1
								c0.3-1,1-1.4,2-1.5c0.9,0,2,0.4,3.2,1.2c1.1,0.8,2.1,2,2.7,3.2c0.6,1.2,0.8,2.4,0.5,3.3l-0.6,2.1l46.6,34.4l25-83.9
								l-46.6-34.4l-0.6,2.1c-0.3,1-1,1.4-2,1.4c-0.9,0-2-0.4-3.2-1.2c-1.1-0.8-2.1-2-2.7-3.2c-0.6-1.2-0.8-2.4-0.5-3.3l0.6-2.1
								L422.8,745.2L422.8,745.2z"/>
							<polygon class="st4" points="535.7,919 535.6,919.1 535,921.1 538.7,923.8 539.2,921.8 539.3,921.7 							"/>
							<path class="st4" d="M538.2,910.4l-1.3,4.3l3.6,2.7l1.3-4.3L538.2,910.4L538.2,910.4z M540.8,901.8l-1.3,4.3l3.6,2.7l1.3-4.3
								L540.8,901.8L540.8,901.8z M543.4,893.2l-1.3,4.3l3.6,2.7l1.3-4.3L543.4,893.2L543.4,893.2z M545.9,884.5l-1.3,4.3l3.6,2.7
								l1.3-4.3L545.9,884.5L545.9,884.5z M548.5,876l-1.3,4.3l3.6,2.7l1.3-4.3L548.5,876L548.5,876z M551.1,867.3l-1.3,4.3l3.6,2.7
								l1.3-4.3L551.1,867.3L551.1,867.3z M553.6,858.7l-1.3,4.3l3.6,2.7l1.3-4.3L553.6,858.7L553.6,858.7z"/>
							<polygon class="st4" points="555.6,852.3 555,854.3 554.9,854.4 558.5,857.1 558.6,857 559.2,855 							"/>
							<path class="st4" d="M492.2,871.6c-0.7,0-1.5-0.4-2.5-1.1c-2.3-1.7-3.1-3.6-2.4-5.8l4.1-13.7c0.4-1.2,1-1.8,1.9-1.8
								c0.7,0,1.5,0.4,2.5,1.1c2.3,1.7,3.1,3.6,2.4,5.8l-4.1,13.7C493.7,871,493,871.6,492.2,871.6L492.2,871.6z M489.4,842.3
								c-0.1,0-0.3,0-0.4,0c-2.1,0.2-3.6,1.6-4.4,4.2l-3.9,13c-0.8,2.7-0.5,5.3,0.7,8c1.3,2.7,3.6,5.2,6.8,7.7
								c3.1,2.3,5.6,3.4,7.7,3.4c0.1,0,0.3,0,0.4,0c2.1-0.2,3.6-1.6,4.4-4.2l3.9-13c0.8-2.7,0.6-5.3-0.7-8c-1.3-2.7-3.6-5.2-6.8-7.7
								C494,843.4,491.4,842.3,489.4,842.3L489.4,842.3z M498.9,819l-41.1,32.9l6.6,4.9l41-32.8L498.9,819L498.9,819z M470.2,826.5
								c-0.7,0-1.5-0.4-2.5-1.1c-2.3-1.7-3.1-3.6-2.4-5.8l4.1-13.7c0.4-1.2,1-1.8,1.9-1.8c0.7,0,1.5,0.4,2.5,1.1
								c2.3,1.7,3.1,3.6,2.4,5.8l-4.1,13.7C471.7,825.9,471.1,826.5,470.2,826.5L470.2,826.5z M467.4,797.2c-0.1,0-0.3,0-0.4,0
								c-2.1,0.2-3.6,1.6-4.4,4.2l-3.9,13c-0.8,2.7-0.5,5.3,0.7,8c1.3,2.7,3.6,5.2,6.8,7.7c3.1,2.3,5.6,3.4,7.7,3.4
								c0.1,0,0.3,0,0.4,0c2.1-0.2,3.6-1.6,4.4-4.2l3.9-13c0.8-2.7,0.5-5.3-0.7-8c-1.3-2.7-3.6-5.2-6.8-7.7
								C472.1,798.3,469.5,797.2,467.4,797.2L467.4,797.2z"/>
						</g>
					</g>
				</g>
			</g>
		</g>
	</g>
	<g>
		<path class="st6" d="M2670.8,1841.2H300.5l0,0c0-22.2,18-40.1,40.1-40.1h2290.1C2652.9,1801.1,2670.8,1819.1,2670.8,1841.2
			L2670.8,1841.2z"/>
		<g>
			<g>
				<path class="st7" d="M877.4,643.8c-17.6,7-27,36.5-28.3,74.2c-1.3,37.7-22.7,87.3,0.8,100c23.5,12.8,63-17.8,93.5,9
					c30.5,26.8,74.9,29.3,74.9,29.3s27.7-22,16.8-84.7s-52.4-40.9-70.9-66.9C945.7,678.8,936.9,620,877.4,643.8z"/>
				<g>
					<path class="st8" d="M887.5,764.7c0,0,61.5-12.9,59.6,7.2c-0.8,8.6-27.4,47.1-28.1,50.3c-0.4,2.3-1,4.7-1.4,7.1
						c-0.5,2.4-1,4.7-1.6,7.1c-0.6,2.4-1.2,4.8-1.8,7.1l-2.1,7.2c-0.3,1.2-0.7,2.4-1.2,3.6l-1.2,3.7l-1.3,3.7l-1.5,3.8l-1.5,3.7
						c-0.3,0.6-0.5,1.2-0.8,1.9l-0.9,1.9l-1.8,3.8l-0.9,1.9l-0.5,1l-0.8,1.4c-1.1,2-2.2,4-3.5,5.8c-1.3,1.8-2.7,3.6-4.1,5.3
						c-1.5,1.6-3,3.2-4.5,4.7c-1.6,1.4-3.2,2.7-4.8,4c-6.5,4.8-13.1,7.9-19.4,10c-1.5,0.5-3.1,1.1-4.6,1.4l-4.5,1.1
						c-2.9,0.6-5.9,1.1-8.7,1.4c-5.6,0.7-11.1,1-16.3,0.9c-10.5-0.1-11.8-49-4.8-50.7c3.5-0.8,6.8-1.9,9.7-3
						c0.7-0.3,1.5-0.5,2.1-0.9c0.7-0.3,1.3-0.6,2-0.9l1.7-1c0.6-0.3,1-0.7,1.5-1c1.8-1.3,2.8-5.6,2.8-5.6l0.6-2.2l0.3-1.1
						c0.1-0.4,0.2-0.8,0.3-1.2l0.5-2.5l0.6-2.5l0.5-2.7c0.3-1.8,0.7-3.5,1-5.4c0.6-3.7,1.9-16.5,3.5-33.5
						C853.3,783.2,866.5,769.2,887.5,764.7L887.5,764.7z"/>
					<path class="st9" d="M1004,910.9c1.1-13.7,9.5-40.4,10.2-61.6c1.5-44.2,0.4-86.7-70.5-87.1c-0.1,0-0.2,0-0.3,0
						c-4.7-0.8-8.2-1.1-9.8-1.3c-0.7,0-1-0.1-1-0.1c-33.1-0.9-56.8,2.5-59.7,26.6c-1.8,14.7-13.8,21.1-16.1,36.9
						c-2.9,20.5,2.9,24,8.2,41.1c4.2,13.5-32.5,105.1-32.5,105.1l176,3.4C1008.6,973.7,1001.5,943.6,1004,910.9z"/>
					<g>
						<path class="st10" d="M941.9,722.3l-45.7,7.8l6.1,17.3l0,0.1l1.7,4.8l1.6,4.6l0.3,1l5.5,0.6l-3.6,3.5c0,0,1.8,7.2,16.2,7.2
							c14.4,0,19.5-7,19.5-7L941.9,722.3z"/>
						<path class="st10" d="M943.4,708.3c1,21.5-10.8,39.2-31.4,45.3c-15.8,4.7-27.9-1.9-46.3-41.7c-9-19.5,15.6-39.7,37-40.7
							C924.2,670.3,942.4,686.9,943.4,708.3z"/>
						<path class="st11" d="M909.4,764.5c0,0-1-0.8-1.6-2.5c-0.6-1.8-3.2-7.1-3.2-7.1s24.7-2.9,30.4-19.4
							C935,735.5,939.4,755.8,909.4,764.5z"/>
					</g>
				</g>
				<path class="st8" d="M977,769.8c52-0.6,35.7,123.5-2.6,140c-47.2,20.3-75.6,13.4-75.6,13.4l-0.4-28.4
					c0.3-0.1,55.9-8.9,57.2-26.5C958.7,829.7,930.1,773.1,977,769.8L977,769.8z"/>
				<g>
					<path class="st12" d="M841.7,934.8l69,0c-1.4,0-2.8,0.5-3.7,1.3c-1,0.8-1.5,1.9-1.5,3.1c0,2.4,2.4,4.4,5.3,4.4l-141.9,0.1
						c-2.9,0-5.3-2-5.3-4.4c0-1.2,0.6-2.3,1.5-3.1c1-0.8,2.3-1.3,3.7-1.3L841.7,934.8z"/>
					<path class="st13" d="M988.1,934.7c2.4,0,4.4,2,4.4,4.4c0,1.2-0.5,2.3-1.3,3.1c-0.8,0.8-1.9,1.3-3.1,1.3l-78.2,0
						c-2.4,0-4.4-2-4.4-4.4c0-1.2,0.5-2.3,1.3-3.1c0.8-0.8,1.9-1.3,3.1-1.3l76.6,0L988.1,934.7z"/>
					<path class="st12" d="M914.5,932.4c-1.2,1.5-3,2.3-4.8,2.3h-5.6c1.9,0,3.7-0.8,4.8-2.3c1.2-1.5,1.7-3.4,1.3-5.2l-18.6-88.6
						c-0.6-2.9-3.2-5-6.2-5h5.6c3,0,5.5,2.1,6.2,5l18.6,88.6C916.2,929,915.7,930.9,914.5,932.4z"/>
					<path class="st14" d="M908.9,932.4c-1.2,1.5-3,2.3-4.8,2.3l-134.7,0.1c-3,0-5.5-2.1-6.2-5l-18.6-88.6c-0.4-1.9,0.1-3.8,1.3-5.2
						c1.2-1.5,3-2.3,4.8-2.3l134.6-0.1c3,0,5.5,2.1,6.2,5l18.6,88.6C910.6,929,910.1,930.9,908.9,932.4z"/>
					<path class="st15" d="M834.7,884.2c0,4-3.3,7.3-7.3,7.3c-4,0-7.3-3.3-7.3-7.3c0-4,3.3-7.3,7.3-7.3
						C831.5,876.9,834.7,880.2,834.7,884.2z"/>
				</g>
				<path class="st7" d="M944,699.2c0,0-48.5,16.1-74.4-9.9c0,0,16.5,18.8,28,16.8c0,0-16.2,5-28-13.4c0,0-3.3,17-11.7,20.4
					c0,0-7.7-47.3,33-53.1C931.6,654.1,942.1,680.6,944,699.2z"/>
				<g>
					<path class="st10" d="M661.2,1094.8c0,0-12,12.9-16.7,10.3l48.9,32.2l10.4-14.4L661.2,1094.8z"/>
					<path class="st7" d="M627.2,1099.1l13.7,4.8c2.9,1,6,0.9,8.8-0.4l6.6-3.9l13.6,22l29.4,7.6l-2.9,4l-15.5-4.4l12.8,8.4
						c2.1,1.4,2.7,4.3,1.3,6.4l-3.9,5.9c-1.5,2.3-4.5,2.9-6.8,1.4l-14.6-9.6l0-7.8l-10.5,0.9l-46-30.2c-0.9-0.6-1-1.9-0.1-2.6l0,0
						C617.1,1098.3,622.4,1097.4,627.2,1099.1z"/>
				</g>
				<g>
					<path class="st10" d="M758.9,1174.7c0,0-2.9,17.3-8.3,17.8h58.5l0.8-17.8H758.9z"/>
					<path class="st7" d="M732.8,1197l14.1-3.6c3-0.8,5.5-2.6,7.2-5.2l3.3-6.9l23.5,10.9l28.7-9.8l-0.2,4.9l-15.3,4.9h15.3
						c2.5,0,4.6,2.1,4.6,4.6v7c0,2.7-2.2,4.9-4.9,4.9h-17.5l-4.3-6.5l-8.3,6.5h-55c-1.1,0-1.8-1.1-1.5-2.1l0,0
						C724,1201.9,727.9,1198.2,732.8,1197z"/>
				</g>
				<path class="st6" d="M783.3,1040.5l-28.5,134.2h57.8l46.9-141.8c0,0-16.8-7.7-40.5-17.7C795.3,1005.1,789.4,1025.6,783.3,1040.5
					z"/>
				<path class="st16" d="M1007.4,1004.5L1007.4,1004.5c-6.9,39.9-26.8,49.7-79.5,43.6c-66.1-7.6-102.7-30.6-102.7-30.6
					l-114.7,105.8l-49-34.8c0,0,29.7-37.7,68.4-84.3c41-49.3,49.8-76.8,127.1-58.3c47.7,11.4,84.4,12.1,119,20h0
					c19.9,4.5,32.7,7.7,32.7,7.7C1009.5,984,1009.2,994.4,1007.4,1004.5z"/>
				<path class="st17" d="M1007.4,1004.5L1007.4,1004.5c-40.9,2.6-31.5-38.5-31.5-38.5h0c19.9,4.5,32.7,7.7,32.7,7.7
					C1009.5,984,1009.2,994.4,1007.4,1004.5z"/>
				<path class="st17" d="M665.2,1083.2l50.8,36.6c2.4,1.7,2.9,5.1,1.2,7.5l0,0c-1.7,2.4-5.1,2.9-7.5,1.2l-50.8-36.6
					c-2.4-1.7-2.9-5.1-1.2-7.5l0,0C659.5,1082.1,662.8,1081.5,665.2,1083.2z"/>
				<path class="st17" d="M753.4,1164H816c3,0,5.4,2.4,5.4,5.4l0,0c0,2.9-2.4,5.4-5.4,5.4h-62.6c-3,0-5.4-2.4-5.4-5.4l0,0
					C748.1,1166.4,750.5,1164,753.4,1164z"/>
			</g>
			<g>
				<path class="st18" d="M894.5,1325.3l-47.2,8.9l-105,19.8c-24.4,4.6-52-33.6-61.7-85.3c-1.3-6.8-2.2-13.7-2.8-20.2
					c4.8-18.5,13.8-31,26-33.3l128.8-24.2c-1,9-1.2,19.3-0.1,31.3c0,0,0,0,0,0.1c0.3,3.5,0.7,7.2,1.2,10.9
					C844.8,1312.2,894.5,1325.3,894.5,1325.3z"/>
				<path class="st19" d="M833.9,1233c-0.5-3.7-0.9-7.4-1.2-10.9c0-0.1,0-0.1,0-0.1c-1.1-12-0.9-22.3,0.1-31.3
					c4.5-41.7,26.5-52.8,26.5-52.8l-152.2,28.7c-21.1,4-32.8,38.8-29.2,81.7c0.6,6.6,1.5,13.4,2.8,20.2
					c9.7,51.7,37.3,89.9,61.7,85.3l105-19.8l47.2-8.9C894.5,1325.3,844.8,1312.2,833.9,1233z"/>
				
					<ellipse transform="matrix(0.9828 -0.1849 0.1849 0.9828 -197.6682 234.8322)" class="st20" cx="1160.3" cy="1177.3" rx="84" ry="178.4"/>
				
					<ellipse transform="matrix(0.9828 -0.1849 0.1849 0.9828 -166.0187 345.3335)" class="st21" cx="1768.6" cy="1062.8" rx="187.5" ry="398.6"/>
				
					<ellipse transform="matrix(0.9828 -0.1849 0.1849 0.9828 -166.0187 345.3335)" class="st19" cx="1768.6" cy="1062.8" rx="187.5" ry="398.6"/>
				<polygon class="st22" points="1768.6,1156.9 1580.1,1246.7 1526.2,960 1734.4,975.1 				"/>
				<path class="st19" d="M1265.3,1564.3l-82.8-214.4l-198.2,35.8l140,386.9l-0.4,0.2l-10.3-26.7l-59.5,34.1l77.1,11.7l67.2-26
					C1267,1739.4,1289.1,1635.8,1265.3,1564.3z"/>
				<path class="st20" d="M1793.7,1058.1c9.3,49.5-2,93.2-25.3,97.5s-49.7-32.2-59-81.7c-9.3-49.5,2-93.2,25.3-97.5
					C1757.9,972,1784.4,1008.6,1793.7,1058.1z"/>
				<path class="st22" d="M1584.1,741.4c6-17.2,12.8-34.3,20.7-51.2c-3.9,4.9-130.7,160.7-352.9,269.1
					c-40.1,19.6-100.9,52.9-114.5,60.4c-28,12.9-48.6,51.2-49.1,109.3c-0.2,19.7,1.5,40.9,5.7,62.7
					c16.3,86.6,62.7,136.2,103.1,144.5c15.6,2.1,84.1,11,128.6,14.6c168.6,13.9,303.5,64.6,373.7,96.2
					c32.4,14.6,51.1,25.2,52.8,26.2c-153.7-145.9-190.7-369.2-190.7-369.5c0-0.2-16.1-76.3-11.2-177.9
					C1552.8,869.5,1562,805,1584.1,741.4L1584.1,741.4z M1566.8,759.8c3.1-3.2,6.1-6.3,8.8-9.3
					C1572.9,753.4,1569.9,756.5,1566.8,759.8z M1555.6,771.1c3.5-3.5,6.9-6.9,10-10.1C1562.5,764.2,1559.1,767.6,1555.6,771.1z"/>
				<path class="st23" d="M1672.1,644c-120.4,22.7-179.7,225.8-135.2,462.3c44.5,236.6,173.6,404.3,294,381.6
					s179.7-225.8,135.2-462.3C1921.6,789,1792.5,621.4,1672.1,644z M1842.3,1454.5c-101.8,19.2-217.3-140.7-258-357
					c-40.7-216.3,8.8-407.2,110.6-426.4c101.8-19.2,217.3,140.7,258,357C1993.6,1244.4,1944.1,1435.3,1842.3,1454.5z"/>
				<path class="st23" d="M1188.5,1559.3l-55.9-144.4l-18.3-47.4l17.4-3.3l33.1-6.2l28.5-5.3c0,0-16.7-4.3-37.6-20.7
					c-28.3-22.2-64.3-66.6-76.1-152.1c-2.1-15.1-3.2-29.1-3.5-41.9c-0.8-32.7,3.4-58,9.9-77.4c14.3-43.5,39.2-57.5,41.2-58.6
					l-285,53.6c-35.9,6.7-57.2,61.1-55.7,131.1c0.3,19,2.3,39.1,6.2,59.8c18.2,96.9,69.9,168.4,115.5,159.8l8.2-1.5l137.9,375.5
					l67.2-26c21.5-8.3,39.2-22.6,52.3-40.8c11-15,18.8-32.7,23.2-51.9C1204.1,1629.7,1201.9,1593.9,1188.5,1559.3z M829.3,1138.8
					c-0.9,4-1.8,8.1-2.5,12.4C827.6,1147,828.4,1142.8,829.3,1138.8z"/>
			</g>
			<g>
				<path class="st24" d="M2224.5,731l-60.1,24.3l-9.9,4.2l1.1-1.5c11-14.8,21.9-29.8,32.5-44.9l32.9-46.8l-51.5,24.1
					c-24,11.2-48.1,22.2-71.8,34c-23.9,11.5-47.6,23.2-71.2,35.4c-23.7,11.9-47.1,24.4-70.5,37c-23.3,12.7-46.5,25.6-69.3,39.4
					c25.4-8.2,50.3-17.3,75.2-26.6c24.8-9.5,49.6-18.9,74.1-29c24.6-9.8,49-20.1,73.4-30.6c7.1-3,14.2-6.1,21.2-9.2l-31.6,44.6
					l-33.2,46.8l51.1-24.9l58.3-28.4l57.8-29.5c38.3-20.1,76.4-40.7,113.7-63C2305.3,699.9,2264.8,715.2,2224.5,731z"/>
				<path class="st24" d="M2144.6,450.4l-67.1,58.2l-11,9.9l0.8-2.5c7.7-24.1,15.1-48.3,22.2-72.6l21.8-75.2l-56,54.1
					c-26.1,25.2-52.4,50.1-77.9,75.9c-25.8,25.5-51.4,51.2-76.5,77.4c-25.4,25.9-50.1,52.5-74.9,79.2
					c-24.5,26.8-48.9,53.8-72.4,81.8c29.2-21.9,57.5-44.8,85.6-67.8c27.9-23.2,55.9-46.5,83.1-70.4c27.5-23.7,54.6-47.8,81.5-72.2
					c7.9-7,15.7-14.2,23.4-21.3l-21.2,71.8l-22.2,75.3l55.1-54.9l62.9-62.7l61.8-63.8c40.7-43,81-86.6,119.3-132.1
					C2235.4,374.3,2189.8,412.1,2144.6,450.4z"/>
				<path class="st24" d="M2298.4,1123.8l-64.9-0.8l-10.8-0.3l1.6,1c15.7,9.8,31.2,19.8,46.6,30l47.7,31.7l-56.7-3.7
					c-26.4-1.7-52.9-3.2-79.3-5.6c-26.4-2-52.8-4.3-79.2-7.1c-26.4-2.4-52.7-5.7-79.1-8.8c-26.3-3.4-52.7-6.9-78.9-11.5
					c26.6-1.6,53.2-2.2,79.7-2.6c26.5-0.2,53.1-0.4,79.6,0.1c26.5,0.2,53,0.9,79.5,1.8c7.7,0.2,15.4,0.5,23.1,0.8l-45.7-30.1
					l-47.9-31.5l56.6,4.6l64.6,5.3l64.5,6.5c43,4.8,86,10.1,128.8,17.4C2384.9,1123.4,2341.6,1123.8,2298.4,1123.8z"/>
				<path class="st24" d="M2325.9,1414.2l-83.6-29.8l-13.8-5.2l1.6,2c15.9,19.6,31.6,39.5,47,59.5l47.7,62.2l-71.8-30
					c-33.5-14-67.1-27.7-100.2-42.4c-33.3-14.4-66.5-29.1-99.4-44.3c-33.1-14.9-65.8-30.7-98.5-46.6c-32.6-16.1-65.1-32.3-97.2-49.9
					c35.2,9.8,69.8,20.8,104.4,32c34.5,11.5,69,23,103,35.4c34.2,12.1,68.2,24.7,102.1,37.7c9.9,3.7,19.7,7.5,29.6,11.3L2151,1347
					l-48.1-62.1l71.3,31.1l81.3,35.5l80.7,37c53.6,25.3,106.9,51.2,159.2,79.7C2438.2,1452.1,2381.9,1433.5,2325.9,1414.2z"/>
			</g>
			<g>
				<g>
					<path class="st25" d="M494.6,1383.3h-28.3c0,19-13.5,34.9-31.5,38.4c-2.5,0.5-5,0.8-7.6,0.8l-1.2,0l-9.6,318.2l-0.2,6.5h4.2
						h5.2h62.8h5.1l0.8-6.5l27.6-232l14.9-125.3L494.6,1383.3L494.6,1383.3z"/>
					<path class="st26" d="M536.7,1383.3H565c0,18.2,11.5,33.4,31.8,37.9c3.9,0.8,8.1,1.3,12.6,1.3l42,318.2l0.9,6.5h-5.1H644h-64.8
						h-5.7l-1.4-6.5l-50.2-232L536.7,1383.3z"/>
					<g>
						<path class="st27" d="M518.8,1778.2c0,0-10.4,5.1-6.9,15.9h23c-0.5-4.3-3-8.1-6.7-10.3
							C524.5,1781.6,521.5,1779.8,518.8,1778.2z"/>
						<path class="st27" d="M416.1,1763.3v16.2c21.1-0.3,18.8-18.9,18.8-18.9c-8.4-0.5-13.5-1.3-14.4-1.4c-0.1,0-0.1,0-0.1,0h-0.1
							C418,1759.1,416.1,1761,416.1,1763.3z"/>
						<path class="st8" d="M494.1,1762.6c-1.7-1.1-3.5-2.2-5.6-3.5c0,0-2,0.3-5.6,0.6c-5.9,0.6-16.2,1.4-28.6,1.4c-1,0-2.1,0-3.1,0
							c-6.4-0.1-11.9-0.3-16.4-0.6c0,0,2.3,18.7-18.8,18.9v14.6h95.8c-3.5-10.8,6.9-15.9,6.9-15.9c-5.6-3.4-9.7-6-15.4-9.6
							C500.8,1766.9,497.8,1764.9,494.1,1762.6z"/>
						<path class="st28" d="M416.1,1794.1v0.5c0,2.9,2.4,5.3,5.2,5.3h109.5c1.1,0,2.2-0.5,2.9-1.2c0.7-0.8,1.2-1.8,1.2-2.9
							c0-0.6,0-1.1-0.1-1.7h-23L416.1,1794.1L416.1,1794.1z"/>
						<path class="st10" d="M420.4,1747.2v11.9c0,0,0,0,0.1,0c1.6,0.2,16.3,1.8,30.8,2c1,0,2,0,3.1,0c12.4,0,22.7-0.8,28.6-1.4
							c3.4-0.4,5.4-0.6,5.4-0.6v-11.9h-62.8L420.4,1747.2L420.4,1747.2z"/>
						<g>
							<g>
								<path class="st27" d="M484.7,1772.9c-0.2,0-0.3-0.1-0.4-0.2c-0.2-0.2-0.2-0.6,0-0.9l9.4-9.7c0.2-0.2,0.6-0.2,0.9,0
									s0.2,0.6,0,0.9l-9.4,9.7C485,1772.8,484.8,1772.9,484.7,1772.9z"/>
							</g>
							<g>
								<path class="st27" d="M489.4,1776.1c-0.2,0-0.3-0.1-0.4-0.2c-0.2-0.2-0.2-0.6,0-0.9l9.4-9.7c0.2-0.2,0.6-0.2,0.9,0
									s0.2,0.6,0,0.9l-9.4,9.7C489.7,1776,489.5,1776.1,489.4,1776.1z"/>
							</g>
							<g>
								<path class="st27" d="M494.1,1778.8c-0.2,0-0.3-0.1-0.4-0.2c-0.2-0.2-0.2-0.6,0-0.9l9.4-9.6c0.2-0.3,0.6-0.3,0.9-0.1
									c0.3,0.2,0.3,0.6,0.1,0.9l0,0.1l-9.4,9.7C494.4,1778.7,494.2,1778.8,494.1,1778.8z"/>
							</g>
						</g>
					</g>
					<g>
						<path class="st27" d="M677.8,1778.2c0,0-10.4,5.1-6.9,15.9h23c-0.5-4.3-3-8.1-6.7-10.3
							C683.5,1781.6,680.4,1779.8,677.8,1778.2z"/>
						<path class="st27" d="M575,1763.3v16.2c21.1-0.3,18.8-18.9,18.8-18.9c-8.4-0.5-13.5-1.3-14.4-1.4c-0.1,0-0.2,0-0.2,0h-0.1
							C576.9,1759.1,575,1761,575,1763.3z"/>
						<path class="st8" d="M653,1762.6c-1.7-1.1-3.5-2.2-5.6-3.5c0,0-2,0.3-5.6,0.6c-5.9,0.6-16.2,1.4-28.6,1.4c-1,0-2.1,0-3.1,0
							c-6.4-0.1-11.9-0.3-16.4-0.6c0,0,2.3,18.7-18.8,18.9v14.6h95.8c-3.5-10.8,6.9-15.9,6.9-15.9c-5.6-3.4-9.7-6-15.4-9.6
							C659.7,1766.9,656.7,1764.9,653,1762.6z"/>
						<path class="st28" d="M575,1794.1v0.5c0,2.9,2.3,5.3,5.2,5.3h109.5c1.1,0,2.2-0.5,2.9-1.2c0.7-0.8,1.2-1.8,1.2-2.9
							c0-0.6,0-1.1-0.1-1.7h-23L575,1794.1L575,1794.1z"/>
						<path class="st10" d="M579.3,1747.2v11.9c0,0,0,0,0.2,0c1.6,0.2,16.3,1.8,30.8,2c1,0,2,0,3.1,0c12.4,0,22.7-0.8,28.6-1.4
							c3.4-0.4,5.4-0.6,5.4-0.6v-11.9h-62.8L579.3,1747.2L579.3,1747.2z"/>
						<g>
							<g>
								<path class="st27" d="M643.6,1772.9c-0.2,0-0.3-0.1-0.4-0.2c-0.2-0.2-0.2-0.6,0-0.9l9.4-9.7c0.2-0.2,0.6-0.2,0.9,0
									s0.2,0.6,0,0.9l-9.4,9.7C643.9,1772.8,643.8,1772.9,643.6,1772.9z"/>
							</g>
							<g>
								<path class="st27" d="M648.3,1776.1c-0.2,0-0.3-0.1-0.4-0.2c-0.2-0.2-0.2-0.6,0-0.9l9.4-9.7c0.2-0.2,0.6-0.2,0.9,0
									s0.2,0.6,0,0.9l-9.4,9.7C648.6,1776,648.5,1776.1,648.3,1776.1z"/>
							</g>
							<g>
								<path class="st27" d="M653,1778.8c-0.2,0-0.3-0.1-0.4-0.2c-0.2-0.2-0.2-0.6,0-0.9l9.4-9.6c0.2-0.3,0.6-0.3,0.9-0.1
									c0.3,0.2,0.3,0.6,0.1,0.9l0,0.1l-9.4,9.7C653.3,1778.7,653.2,1778.8,653,1778.8z"/>
							</g>
						</g>
					</g>
					<g>
						<polygon class="st29" points="536.7,1383.3 531.9,1555.3 521.8,1508.7 						"/>
						<path class="st29" d="M427.1,1383.3l-1.2,39.1l1.2,0c2.6,0,5.2-0.2,7.6-0.8c18-3.6,31.5-19.4,31.5-38.4L427.1,1383.3
							L427.1,1383.3z"/>
						<path class="st29" d="M604.2,1383.3H565c0,18.2,11.5,33.4,31.8,37.9c3.9,0.8,8.1,1.3,12.6,1.3L604.2,1383.3z"/>
						<g>
							<g>
								<g>
									<path class="st30" d="M426,1423.1c2.5,0,6.3-0.2,9-0.7c18.5-3.7,32-20.1,32-39c0-0.3-0.3-0.6-0.6-0.6s-0.6,0.3-0.6,0.6
										c0,18.3-13,34.2-31,37.8c-2.4,0.5-6.1,0.7-8.7,0.7c-0.4,0-0.6,0.3-0.6,0.6C425.3,1422.8,425.6,1423.1,426,1423.1z"/>
								</g>
								<g>
									<g>
										<path class="st30" d="M597.1,1423.7C597.1,1423.7,597.1,1423.7,597.1,1423.7c0.4-0.1,0.7-0.4,0.6-0.7l-0.3-1.9
											c0-0.3-0.4-0.6-0.7-0.5c-0.3,0.1-0.6,0.4-0.5,0.7l0.3,1.9C596.5,1423.5,596.8,1423.7,597.1,1423.7z"/>
									</g>
									<g>
										<path class="st30" d="M642.5,1741.7l-0.5-3.7c0-0.3,0.2-0.7,0.5-0.7c0.3-0.1,0.7,0.2,0.7,0.5l0.5,3.7
											c0,0.3-0.2,0.7-0.5,0.7c0,0-0.1,0-0.1,0C642.8,1742.3,642.6,1742,642.5,1741.7z M641.5,1734.3l-0.5-3.7
											c0-0.3,0.2-0.7,0.5-0.7c0.3,0,0.7,0.2,0.7,0.5l0.5,3.7c0,0.3-0.2,0.7-0.5,0.7c0,0-0.1,0-0.1,0
											C641.8,1734.9,641.5,1734.6,641.5,1734.3z M640.4,1726.9l-0.5-3.7c0-0.3,0.2-0.7,0.5-0.7c0.3,0,0.7,0.2,0.7,0.5l0.5,3.7
											c0,0.3-0.2,0.7-0.5,0.7c0,0-0.1,0-0.1,0C640.7,1727.4,640.4,1727.2,640.4,1726.9z M639.3,1719.5l-0.5-3.7
											c0-0.3,0.2-0.7,0.5-0.7c0.3,0,0.7,0.2,0.7,0.5l0.5,3.7c0,0.3-0.2,0.7-0.5,0.7c0,0-0.1,0-0.1,0
											C639.6,1720,639.4,1719.8,639.3,1719.5z M638.2,1712.1l-0.5-3.7c0-0.3,0.2-0.7,0.5-0.7c0.3,0,0.7,0.2,0.7,0.5l0.5,3.7
											c0,0.3-0.2,0.7-0.5,0.7c0,0-0.1,0-0.1,0C638.6,1712.6,638.3,1712.4,638.2,1712.1z M637.2,1704.7l-0.5-3.7
											c0-0.3,0.2-0.7,0.5-0.7c0.3,0,0.7,0.2,0.7,0.5l0.5,3.7c0,0.3-0.2,0.7-0.5,0.7c0,0-0.1,0-0.1,0
											C637.5,1705.2,637.2,1705,637.2,1704.7z M636.1,1697.3l-0.5-3.7c0-0.3,0.2-0.7,0.5-0.7c0.3,0,0.7,0.2,0.7,0.5l0.5,3.7
											c0,0.3-0.2,0.7-0.5,0.7c0,0-0.1,0-0.1,0C636.4,1697.8,636.1,1697.6,636.1,1697.3z M635,1689.9l-0.5-3.7
											c0-0.3,0.2-0.7,0.5-0.7c0.3-0.1,0.7,0.2,0.7,0.5l0.5,3.7c0,0.3-0.2,0.7-0.5,0.7c0,0-0.1,0-0.1,0
											C635.3,1690.4,635.1,1690.2,635,1689.9z M634,1682.5l-0.5-3.7c0-0.3,0.2-0.7,0.5-0.7c0.3-0.1,0.7,0.2,0.7,0.5l0.5,3.7
											c0,0.3-0.2,0.7-0.5,0.7c0,0-0.1,0-0.1,0C634.3,1683,634,1682.8,634,1682.5z M632.9,1675.1l-0.5-3.7c0-0.3,0.2-0.7,0.5-0.7
											c0.3,0,0.7,0.2,0.7,0.5l0.5,3.7c0,0.3-0.2,0.7-0.5,0.7c0,0-0.1,0-0.1,0C633.2,1675.6,632.9,1675.4,632.9,1675.1z
											 M631.8,1667.6l-0.5-3.7c0-0.3,0.2-0.7,0.5-0.7c0.3-0.1,0.7,0.2,0.7,0.5l0.5,3.7c0,0.3-0.2,0.7-0.5,0.7c0,0-0.1,0-0.1,0
											C632.1,1668.2,631.9,1668,631.8,1667.6z M630.7,1660.2l-0.5-3.7c0-0.3,0.2-0.7,0.5-0.7c0.3-0.1,0.7,0.2,0.7,0.5l0.5,3.7
											c0,0.3-0.2,0.7-0.5,0.7c0,0-0.1,0-0.1,0C631,1660.8,630.8,1660.6,630.7,1660.2z M629.7,1652.8l-0.5-3.7
											c0-0.3,0.2-0.7,0.5-0.7c0.3-0.1,0.7,0.2,0.7,0.5l0.5,3.7c0,0.3-0.2,0.7-0.5,0.7c0,0-0.1,0-0.1,0
											C630,1653.4,629.7,1653.1,629.7,1652.8z M628.6,1645.4l-0.5-3.7c0-0.3,0.2-0.7,0.5-0.7c0.3-0.1,0.7,0.2,0.7,0.5l0.5,3.7
											c0,0.3-0.2,0.7-0.5,0.7c0,0-0.1,0-0.1,0C628.9,1646,628.6,1645.7,628.6,1645.4z M627.5,1638l-0.5-3.7
											c0-0.3,0.2-0.7,0.5-0.7c0.3-0.1,0.7,0.2,0.7,0.5l0.5,3.7c0,0.3-0.2,0.7-0.5,0.7c0,0-0.1,0-0.1,0
											C627.8,1638.6,627.6,1638.3,627.5,1638z M626.5,1630.6l-0.5-3.7c0-0.3,0.2-0.7,0.5-0.7c0.3-0.1,0.7,0.2,0.7,0.5l0.5,3.7
											c0,0.3-0.2,0.7-0.5,0.7c0,0-0.1,0-0.1,0C626.8,1631.1,626.5,1630.9,626.5,1630.6z M625.4,1623.2l-0.5-3.7
											c0-0.3,0.2-0.7,0.5-0.7c0.3-0.1,0.7,0.2,0.7,0.5l0.5,3.7c0,0.3-0.2,0.7-0.5,0.7c0,0-0.1,0-0.1,0
											C625.7,1623.7,625.4,1623.5,625.4,1623.2z M624.3,1615.8l-0.5-3.7c0-0.3,0.2-0.7,0.5-0.7c0.3-0.1,0.7,0.2,0.7,0.5l0.5,3.7
											c0,0.3-0.2,0.7-0.5,0.7c0,0-0.1,0-0.1,0C624.6,1616.3,624.3,1616.1,624.3,1615.8z M623.2,1608.4l-0.5-3.7
											c0-0.3,0.2-0.7,0.5-0.7c0.3-0.1,0.7,0.2,0.7,0.5l0.5,3.7c0,0.3-0.2,0.7-0.5,0.7c0,0-0.1,0-0.1,0
											C623.5,1608.9,623.3,1608.7,623.2,1608.4z M622.2,1601l-0.5-3.7c0-0.3,0.2-0.7,0.5-0.7c0.3-0.1,0.7,0.2,0.7,0.5l0.5,3.7
											c0,0.3-0.2,0.7-0.5,0.7c0,0-0.1,0-0.1,0C622.5,1601.5,622.2,1601.3,622.2,1601z M621.1,1593.6l-0.5-3.7
											c0-0.3,0.2-0.7,0.5-0.7c0.3-0.1,0.7,0.2,0.7,0.5l0.5,3.7c0,0.3-0.2,0.7-0.5,0.7c0,0-0.1,0-0.1,0
											C621.4,1594.1,621.1,1593.9,621.1,1593.6z M620,1586.2l-0.5-3.7c0-0.3,0.2-0.7,0.5-0.7c0.3-0.1,0.7,0.2,0.7,0.5l0.5,3.7
											c0,0.3-0.2,0.7-0.5,0.7c0,0-0.1,0-0.1,0C620.3,1586.7,620.1,1586.5,620,1586.2z M619,1578.7l-0.5-3.7
											c0-0.3,0.2-0.7,0.5-0.7c0.3-0.1,0.7,0.2,0.7,0.5l0.5,3.7c0,0.3-0.2,0.7-0.5,0.7c0,0-0.1,0-0.1,0
											C619.3,1579.3,619,1579.1,619,1578.7z M617.9,1571.3l-0.5-3.7c0-0.3,0.2-0.7,0.5-0.7c0.3-0.1,0.7,0.2,0.7,0.5l0.5,3.7
											c0,0.3-0.2,0.7-0.5,0.7c0,0-0.1,0-0.1,0C618.2,1571.9,617.9,1571.7,617.9,1571.3z M616.8,1563.9l-0.5-3.7
											c0-0.3,0.2-0.7,0.5-0.7c0.3-0.1,0.7,0.2,0.7,0.5l0.5,3.7c0,0.3-0.2,0.7-0.5,0.7c0,0-0.1,0-0.1,0
											C617.1,1564.5,616.8,1564.2,616.8,1563.9z M615.7,1556.5l-0.5-3.7c0-0.3,0.2-0.7,0.5-0.7c0.3-0.1,0.7,0.2,0.7,0.5l0.5,3.7
											c0,0.3-0.2,0.7-0.5,0.7c0,0-0.1,0-0.1,0C616,1557.1,615.8,1556.8,615.7,1556.5z M614.7,1549.1l-0.5-3.7
											c0-0.3,0.2-0.7,0.5-0.7c0.3-0.1,0.7,0.2,0.7,0.5l0.5,3.7c0,0.3-0.2,0.7-0.5,0.7c0,0-0.1,0-0.1,0
											C615,1549.6,614.7,1549.4,614.7,1549.1z M613.6,1541.7l-0.5-3.7c0-0.3,0.2-0.7,0.5-0.7c0.3-0.1,0.7,0.2,0.7,0.5l0.5,3.7
											c0,0.3-0.2,0.7-0.5,0.7c0,0-0.1,0-0.1,0C613.9,1542.2,613.6,1542,613.6,1541.7z M612.5,1534.3l-0.5-3.7
											c0-0.3,0.2-0.7,0.5-0.7c0.3-0.1,0.7,0.2,0.7,0.5l0.5,3.7c0,0.3-0.2,0.7-0.5,0.7c0,0-0.1,0-0.1,0
											C612.8,1534.8,612.6,1534.6,612.5,1534.3z M611.4,1526.9l-0.5-3.7c0-0.3,0.2-0.7,0.5-0.7c0.3-0.1,0.7,0.2,0.7,0.5l0.5,3.7
											c0,0.3-0.2,0.7-0.5,0.7c0,0-0.1,0-0.1,0C611.8,1527.4,611.5,1527.2,611.4,1526.9z M610.4,1519.5l-0.5-3.7
											c0-0.3,0.2-0.7,0.5-0.7c0.3-0.1,0.7,0.2,0.7,0.5l0.5,3.7c0,0.3-0.2,0.7-0.5,0.7c0,0-0.1,0-0.1,0
											C610.7,1520,610.4,1519.8,610.4,1519.5z M609.3,1512.1l-0.5-3.7c0-0.3,0.2-0.7,0.5-0.7c0.3-0.1,0.7,0.2,0.7,0.5l0.5,3.7
											c0,0.3-0.2,0.7-0.5,0.7c0,0-0.1,0-0.1,0C609.6,1512.6,609.3,1512.4,609.3,1512.1z M608.2,1504.7l-0.5-3.7
											c0-0.3,0.2-0.7,0.5-0.7c0.3-0.1,0.7,0.2,0.7,0.5l0.5,3.7c0,0.3-0.2,0.7-0.5,0.7c0,0-0.1,0-0.1,0
											C608.5,1505.2,608.3,1505,608.2,1504.7z M607.2,1497.2l-0.5-3.7c0-0.3,0.2-0.7,0.5-0.7c0.3-0.1,0.7,0.2,0.7,0.5l0.5,3.7
											c0,0.3-0.2,0.7-0.5,0.7c0,0-0.1,0-0.1,0C607.5,1497.8,607.2,1497.6,607.2,1497.2z M606.1,1489.8l-0.5-3.7
											c0-0.3,0.2-0.7,0.5-0.7c0.3-0.1,0.7,0.2,0.7,0.5l0.5,3.7c0,0.3-0.2,0.7-0.5,0.7c0,0-0.1,0-0.1,0
											C606.4,1490.4,606.1,1490.2,606.1,1489.8z M605,1482.4l-0.5-3.7c0-0.3,0.2-0.7,0.5-0.7c0.3-0.1,0.7,0.2,0.7,0.5l0.5,3.7
											c0,0.3-0.2,0.7-0.5,0.7c0,0-0.1,0-0.1,0C605.3,1483,605.1,1482.7,605,1482.4z M603.9,1475l-0.5-3.7c0-0.3,0.2-0.7,0.5-0.7
											c0.3-0.1,0.7,0.2,0.7,0.5l0.5,3.7c0,0.3-0.2,0.7-0.5,0.7c0,0-0.1,0-0.1,0C604.2,1475.6,604,1475.3,603.9,1475z
											 M602.9,1467.6l-0.5-3.7c0-0.3,0.2-0.7,0.5-0.7c0.3-0.1,0.7,0.2,0.7,0.5l0.5,3.7c0,0.3-0.2,0.7-0.5,0.7c0,0-0.1,0-0.1,0
											C603.2,1468.2,602.9,1467.9,602.9,1467.6z M601.8,1460.2l-0.5-3.7c0-0.3,0.2-0.7,0.5-0.7c0.3-0.1,0.7,0.2,0.7,0.5l0.5,3.7
											c0,0.3-0.2,0.7-0.5,0.7c0,0-0.1,0-0.1,0C602.1,1460.7,601.8,1460.5,601.8,1460.2z M600.7,1452.8l-0.5-3.7
											c0-0.3,0.2-0.7,0.5-0.7c0.3-0.1,0.7,0.2,0.7,0.5l0.5,3.7c0,0.3-0.2,0.7-0.5,0.7c0,0-0.1,0-0.1,0
											C601,1453.3,600.8,1453.1,600.7,1452.8z M599.7,1445.4l-0.5-3.7c0-0.3,0.2-0.7,0.5-0.7c0.3-0.1,0.7,0.2,0.7,0.5l0.5,3.7
											c0,0.3-0.2,0.7-0.5,0.7c0,0-0.1,0-0.1,0C600,1445.9,599.7,1445.7,599.7,1445.4z M598.6,1438l-0.5-3.7
											c0-0.3,0.2-0.7,0.5-0.7c0.3-0.1,0.7,0.2,0.7,0.5l0.5,3.7c0,0.3-0.2,0.7-0.5,0.7c0,0-0.1,0-0.1,0
											C598.9,1438.5,598.6,1438.3,598.6,1438z M597.5,1430.6l-0.5-3.7c0-0.3,0.2-0.7,0.5-0.7c0.3-0.1,0.7,0.2,0.7,0.5l0.5,3.7
											c0,0.3-0.2,0.7-0.5,0.7c0,0-0.1,0-0.1,0C597.8,1431.1,597.5,1430.9,597.5,1430.6z"/>
									</g>
									<g>
										<path class="st30" d="M644,1747.8C644,1747.8,644,1747.8,644,1747.8c0.4-0.1,0.7-0.4,0.6-0.7l-0.3-1.9
											c0-0.3-0.4-0.6-0.7-0.5c-0.3,0.1-0.6,0.4-0.5,0.7l0.3,1.9C643.4,1747.6,643.7,1747.8,644,1747.8z"/>
									</g>
								</g>
								<g>
									<path class="st30" d="M571.4,1740.7c0-0.3,0.3-0.6,0.6-0.6h3.8c0.3,0,0.6,0.3,0.6,0.6s-0.3,0.6-0.6,0.6H572
										C571.7,1741.3,571.4,1741,571.4,1740.7z M578.9,1740.7c0-0.3,0.3-0.6,0.6-0.6h3.8c0.3,0,0.6,0.3,0.6,0.6s-0.3,0.6-0.6,0.6
										h-3.8C579.2,1741.3,578.9,1741,578.9,1740.7z M586.4,1740.7c0-0.3,0.3-0.6,0.6-0.6h3.8c0.3,0,0.6,0.3,0.6,0.6
										s-0.3,0.6-0.6,0.6h-3.8C586.7,1741.3,586.4,1741,586.4,1740.7z M594,1740.7c0-0.3,0.3-0.6,0.6-0.6h3.8
										c0.3,0,0.6,0.3,0.6,0.6s-0.3,0.6-0.6,0.6h-3.8C594.3,1741.3,594,1741,594,1740.7z M601.5,1740.7c0-0.3,0.3-0.6,0.6-0.6h3.8
										c0.3,0,0.6,0.3,0.6,0.6s-0.3,0.6-0.6,0.6h-3.8C601.8,1741.3,601.5,1741,601.5,1740.7z M609,1740.7c0-0.3,0.3-0.6,0.6-0.6
										h3.8c0.3,0,0.6,0.3,0.6,0.6s-0.3,0.6-0.6,0.6h-3.8C609.3,1741.3,609,1741,609,1740.7z M616.6,1740.7c0-0.3,0.3-0.6,0.6-0.6
										h3.8c0.3,0,0.6,0.3,0.6,0.6s-0.3,0.6-0.6,0.6h-3.8C616.9,1741.3,616.6,1741,616.6,1740.7z M624.1,1740.7
										c0-0.3,0.3-0.6,0.6-0.6h3.8c0.3,0,0.6,0.3,0.6,0.6s-0.3,0.6-0.6,0.6h-3.8C624.4,1741.3,624.1,1741,624.1,1740.7z
										 M631.7,1740.7c0-0.3,0.3-0.6,0.6-0.6h3.8c0.3,0,0.6,0.3,0.6,0.6s-0.3,0.6-0.6,0.6h-3.8
										C631.9,1741.3,631.7,1741,631.7,1740.7z M639.2,1740.7c0-0.3,0.3-0.6,0.6-0.6h3.8c0.3,0,0.6,0.3,0.6,0.6s-0.3,0.6-0.6,0.6
										h-3.8C639.5,1741.3,639.2,1741,639.2,1740.7z M646.7,1740.7c0-0.3,0.3-0.6,0.6-0.6h3.8c0.3,0,0.6,0.3,0.6,0.6
										s-0.3,0.6-0.6,0.6h-3.8C647,1741.3,646.7,1741,646.7,1740.7z"/>
								</g>
								<g>
									<path class="st30" d="M425.5,1747.8c-0.4,0-0.6-0.3-0.6-0.7l0-1.5c0-0.3,0.3-0.6,0.6-0.6c0.4,0,0.6,0.3,0.6,0.7l0,1.5
										C426.1,1747.6,425.8,1747.8,425.5,1747.8C425.5,1747.8,425.5,1747.8,425.5,1747.8z M425.6,1742.5c-0.4,0-0.6-0.3-0.6-0.7
										l0.1-3.8c0-0.3,0.3-0.6,0.6-0.6c0.4,0,0.6,0.3,0.6,0.7l-0.1,3.8C426.3,1742.3,426,1742.5,425.6,1742.5
										C425.7,1742.5,425.6,1742.5,425.6,1742.5z M425.9,1735c-0.4,0-0.6-0.3-0.6-0.7l0.1-3.8c0-0.3,0.3-0.6,0.6-0.6
										c0.4,0,0.6,0.3,0.6,0.7l-0.1,3.8C426.5,1734.7,426.2,1735,425.9,1735C425.9,1735,425.9,1735,425.9,1735z M426.1,1727.5
										c-0.4,0-0.6-0.3-0.6-0.7l0.1-3.8c0-0.3,0.3-0.6,0.6-0.6c0.4,0,0.6,0.3,0.6,0.7l-0.1,3.8
										C426.7,1727.2,426.4,1727.5,426.1,1727.5C426.1,1727.5,426.1,1727.5,426.1,1727.5z M426.3,1719.9c-0.4,0-0.6-0.3-0.6-0.7
										l0.1-3.8c0-0.3,0.3-0.6,0.6-0.6c0.4,0,0.6,0.3,0.6,0.7l-0.1,3.8C426.9,1719.7,426.6,1719.9,426.3,1719.9
										C426.3,1719.9,426.3,1719.9,426.3,1719.9z M426.5,1712.4c-0.4,0-0.6-0.3-0.6-0.7l0.1-3.8c0-0.3,0.3-0.6,0.6-0.6
										c0.4,0,0.6,0.3,0.6,0.7l-0.1,3.8C427.1,1712.2,426.9,1712.4,426.5,1712.4C426.5,1712.4,426.5,1712.4,426.5,1712.4z
										 M426.7,1704.9c-0.4,0-0.6-0.3-0.6-0.7l0.1-3.8c0-0.3,0.3-0.6,0.6-0.6s0.6,0.3,0.6,0.7l-0.1,3.8
										C427.4,1704.6,427.1,1704.9,426.7,1704.9C426.7,1704.9,426.7,1704.9,426.7,1704.9z M426.9,1697.3c-0.4,0-0.6-0.3-0.6-0.7
										l0.1-3.8c0-0.3,0.3-0.6,0.6-0.6c0.4,0,0.6,0.3,0.6,0.7l-0.1,3.8C427.6,1697.1,427.3,1697.3,426.9,1697.3
										C427,1697.3,426.9,1697.3,426.9,1697.3z M427.1,1689.8c-0.4,0-0.6-0.3-0.6-0.7l0.1-3.8c0-0.3,0.3-0.6,0.6-0.6
										c0.4,0,0.6,0.3,0.6,0.7l-0.1,3.8C427.8,1689.5,427.5,1689.8,427.1,1689.8C427.2,1689.8,427.1,1689.8,427.1,1689.8z
										 M427.4,1682.3c-0.4,0-0.6-0.3-0.6-0.7l0.1-3.8c0-0.3,0.3-0.6,0.6-0.6c0.4,0,0.6,0.3,0.6,0.7l-0.1,3.8
										C428,1682,427.7,1682.3,427.4,1682.3C427.4,1682.3,427.4,1682.3,427.4,1682.3z M427.6,1674.7c-0.4,0-0.6-0.3-0.6-0.7
										l0.1-3.8c0-0.3,0.3-0.6,0.6-0.6c0.4,0,0.6,0.3,0.6,0.7l-0.1,3.8C428.2,1674.5,427.9,1674.7,427.6,1674.7
										C427.6,1674.7,427.6,1674.7,427.6,1674.7z M427.8,1667.2c-0.4,0-0.6-0.3-0.6-0.7l0.1-3.8c0-0.3,0.3-0.6,0.6-0.6
										c0.4,0,0.6,0.3,0.6,0.7l-0.1,3.8C428.4,1666.9,428.1,1667.2,427.8,1667.2C427.8,1667.2,427.8,1667.2,427.8,1667.2z
										 M428,1659.7c-0.4,0-0.6-0.3-0.6-0.7l0.1-3.8c0-0.3,0.3-0.6,0.6-0.6c0.4,0,0.6,0.3,0.6,0.7l-0.1,3.8
										C428.6,1659.4,428.4,1659.7,428,1659.7C428,1659.7,428,1659.7,428,1659.7z M428.2,1652.1c-0.4,0-0.6-0.3-0.6-0.7l0.1-3.8
										c0-0.3,0.3-0.6,0.6-0.6c0.4,0,0.6,0.3,0.6,0.7l-0.1,3.8C428.9,1651.9,428.6,1652.1,428.2,1652.1
										C428.2,1652.1,428.2,1652.1,428.2,1652.1z M428.4,1644.6c-0.4,0-0.6-0.3-0.6-0.7l0.1-3.8c0-0.3,0.3-0.6,0.6-0.6
										c0.4,0,0.6,0.3,0.6,0.7l-0.1,3.8C429.1,1644.3,428.8,1644.6,428.4,1644.6C428.5,1644.6,428.4,1644.6,428.4,1644.6z
										 M428.6,1637.1c-0.4,0-0.6-0.3-0.6-0.7l0.1-3.8c0-0.3,0.3-0.6,0.6-0.6s0.6,0.3,0.6,0.7l-0.1,3.8
										C429.3,1636.8,429,1637.1,428.6,1637.1C428.7,1637.1,428.7,1637.1,428.6,1637.1z M428.9,1629.5c-0.4,0-0.6-0.3-0.6-0.7
										l0.1-3.8c0-0.3,0.3-0.6,0.6-0.6c0.4,0,0.6,0.3,0.6,0.7l-0.1,3.8C429.5,1629.3,429.2,1629.5,428.9,1629.5
										C428.9,1629.5,428.9,1629.5,428.9,1629.5z M429.1,1622c-0.4,0-0.6-0.3-0.6-0.7l0.1-3.8c0-0.3,0.3-0.6,0.6-0.6
										c0.4,0,0.6,0.3,0.6,0.7l-0.1,3.8C429.7,1621.7,429.4,1622,429.1,1622C429.1,1622,429.1,1622,429.1,1622z M429.3,1614.5
										c-0.4,0-0.6-0.3-0.6-0.7l0.1-3.8c0-0.3,0.3-0.6,0.6-0.6c0.4,0,0.6,0.3,0.6,0.7l-0.1,3.8
										C429.9,1614.2,429.7,1614.5,429.3,1614.5C429.3,1614.5,429.3,1614.5,429.3,1614.5z M429.5,1606.9c-0.4,0-0.6-0.3-0.6-0.7
										l0.1-3.8c0-0.3,0.3-0.6,0.6-0.6c0.4,0,0.6,0.3,0.6,0.7l-0.1,3.8C430.1,1606.7,429.9,1606.9,429.5,1606.9
										C429.5,1606.9,429.5,1606.9,429.5,1606.9z M429.7,1599.4c-0.4,0-0.6-0.3-0.6-0.7l0.1-3.8c0-0.3,0.3-0.6,0.6-0.6
										c0.4,0,0.6,0.3,0.6,0.7l-0.1,3.8C430.4,1599.1,430.1,1599.4,429.7,1599.4C429.7,1599.4,429.7,1599.4,429.7,1599.4z
										 M429.9,1591.9c-0.4,0-0.6-0.3-0.6-0.7l0.1-3.8c0-0.3,0.3-0.6,0.6-0.6c0.4,0,0.6,0.3,0.6,0.7l-0.1,3.8
										C430.6,1591.6,430.3,1591.9,429.9,1591.9C430,1591.9,430,1591.9,429.9,1591.9z M430.2,1584.3c-0.4,0-0.6-0.3-0.6-0.7
										l0.1-3.8c0-0.3,0.3-0.6,0.6-0.6c0.4,0,0.6,0.3,0.6,0.7l-0.1,3.8C430.8,1584.1,430.5,1584.3,430.2,1584.3
										C430.2,1584.3,430.2,1584.3,430.2,1584.3z M430.4,1576.8c-0.4,0-0.6-0.3-0.6-0.7l0.1-3.8c0-0.3,0.3-0.6,0.6-0.6
										c0.4,0,0.6,0.3,0.6,0.7l-0.1,3.8C431,1576.5,430.7,1576.8,430.4,1576.8C430.4,1576.8,430.4,1576.8,430.4,1576.8z
										 M430.6,1569.3c-0.4,0-0.6-0.3-0.6-0.7l0.1-3.8c0-0.3,0.3-0.6,0.6-0.6s0.6,0.3,0.6,0.7l-0.1,3.8
										C431.2,1569,430.9,1569.3,430.6,1569.3C430.6,1569.3,430.6,1569.3,430.6,1569.3z M430.8,1561.7c-0.4,0-0.6-0.3-0.6-0.7
										l0.1-3.8c0-0.3,0.3-0.6,0.6-0.6c0.4,0,0.6,0.3,0.6,0.7l-0.1,3.8C431.4,1561.5,431.2,1561.7,430.8,1561.7
										C430.8,1561.7,430.8,1561.7,430.8,1561.7z M431,1554.2c-0.4,0-0.6-0.3-0.6-0.7l0.1-3.8c0-0.3,0.3-0.6,0.6-0.6
										c0.4,0,0.6,0.3,0.6,0.7l-0.1,3.8C431.7,1553.9,431.4,1554.2,431,1554.2C431,1554.2,431,1554.2,431,1554.2z M431.2,1546.7
										c-0.4,0-0.6-0.3-0.6-0.7l0.1-3.8c0-0.3,0.3-0.6,0.6-0.6c0.4,0,0.6,0.3,0.6,0.7l-0.1,3.8
										C431.9,1546.4,431.6,1546.7,431.2,1546.7C431.2,1546.7,431.2,1546.7,431.2,1546.7z M431.5,1539.1c-0.4,0-0.6-0.3-0.6-0.7
										l0.1-3.8c0-0.3,0.3-0.6,0.6-0.6c0.4,0,0.6,0.3,0.6,0.7l-0.1,3.8C432.1,1538.9,431.8,1539.1,431.5,1539.1
										C431.5,1539.1,431.5,1539.1,431.5,1539.1z M431.7,1531.6c-0.4,0-0.6-0.3-0.6-0.7l0.1-3.8c0-0.3,0.3-0.6,0.6-0.6
										c0.4,0,0.6,0.3,0.6,0.7l-0.1,3.8C432.3,1531.3,432,1531.6,431.7,1531.6C431.7,1531.6,431.7,1531.6,431.7,1531.6z
										 M431.9,1524.1c-0.4,0-0.6-0.3-0.6-0.7l0.1-3.8c0-0.3,0.3-0.6,0.6-0.6c0.4,0,0.6,0.3,0.6,0.7l-0.1,3.8
										C432.5,1523.8,432.2,1524.1,431.9,1524.1C431.9,1524.1,431.9,1524.1,431.9,1524.1z M432.1,1516.5c-0.4,0-0.6-0.3-0.6-0.7
										l0.1-3.8c0-0.3,0.3-0.6,0.6-0.6c0.4,0,0.6,0.3,0.6,0.7l-0.1,3.8C432.7,1516.3,432.4,1516.5,432.1,1516.5
										C432.1,1516.5,432.1,1516.5,432.1,1516.5z M432.3,1509c-0.4,0-0.6-0.3-0.6-0.7l0.1-3.8c0-0.3,0.3-0.6,0.6-0.6
										c0.4,0,0.6,0.3,0.6,0.7l-0.1,3.8C432.9,1508.7,432.7,1509,432.3,1509C432.3,1509,432.3,1509,432.3,1509z M432.5,1501.5
										c-0.4,0-0.6-0.3-0.6-0.7l0.1-3.8c0-0.3,0.3-0.6,0.6-0.6c0.4,0,0.6,0.3,0.6,0.7l-0.1,3.8
										C433.2,1501.2,432.9,1501.5,432.5,1501.5C432.5,1501.5,432.5,1501.5,432.5,1501.5z M432.7,1493.9c-0.4,0-0.6-0.3-0.6-0.7
										l0.1-3.8c0-0.3,0.3-0.6,0.6-0.6c0.4,0,0.6,0.3,0.6,0.7l-0.1,3.8C433.4,1493.7,433.1,1493.9,432.7,1493.9
										C432.8,1493.9,432.7,1493.9,432.7,1493.9z M433,1486.4c-0.4,0-0.6-0.3-0.6-0.7l0.1-3.8c0-0.3,0.3-0.6,0.6-0.6
										c0.4,0,0.6,0.3,0.6,0.7l-0.1,3.8C433.6,1486.1,433.3,1486.4,433,1486.4C433,1486.4,433,1486.4,433,1486.4z M433.2,1478.9
										c-0.4,0-0.6-0.3-0.6-0.7l0.1-3.8c0-0.3,0.3-0.6,0.6-0.6c0.4,0,0.6,0.3,0.6,0.7l-0.1,3.8
										C433.8,1478.6,433.5,1478.9,433.2,1478.9C433.2,1478.9,433.2,1478.9,433.2,1478.9z M433.4,1471.3c-0.4,0-0.6-0.3-0.6-0.7
										l0.1-3.8c0-0.3,0.3-0.6,0.6-0.6c0.4,0,0.6,0.3,0.6,0.7l-0.1,3.8C434,1471.1,433.7,1471.3,433.4,1471.3
										C433.4,1471.3,433.4,1471.3,433.4,1471.3z M433.6,1463.8c-0.4,0-0.6-0.3-0.6-0.7l0.1-3.8c0-0.3,0.3-0.6,0.6-0.6
										c0.4,0,0.6,0.3,0.6,0.7l-0.1,3.8C434.2,1463.5,433.9,1463.8,433.6,1463.8C433.6,1463.8,433.6,1463.8,433.6,1463.8z
										 M433.8,1456.3c-0.4,0-0.6-0.3-0.6-0.7l0.1-3.8c0-0.3,0.3-0.6,0.6-0.6c0.4,0,0.6,0.3,0.6,0.7l-0.1,3.8
										C434.4,1456,434.2,1456.3,433.8,1456.3C433.8,1456.3,433.8,1456.3,433.8,1456.3z M434,1448.7c-0.4,0-0.6-0.3-0.6-0.7
										l0.1-3.8c0-0.3,0.3-0.6,0.6-0.6c0.4,0,0.6,0.3,0.6,0.7l-0.1,3.8C434.7,1448.5,434.4,1448.7,434,1448.7
										C434,1448.7,434,1448.7,434,1448.7z M434.2,1441.2c-0.4,0-0.6-0.3-0.6-0.7l0.1-3.8c0-0.3,0.3-0.6,0.6-0.6
										c0.4,0,0.6,0.3,0.6,0.7l-0.1,3.8C434.9,1440.9,434.6,1441.2,434.2,1441.2C434.2,1441.2,434.2,1441.2,434.2,1441.2z
										 M434.5,1433.7c-0.4,0-0.6-0.3-0.6-0.7l0.1-3.8c0-0.3,0.3-0.6,0.6-0.6c0.4,0,0.6,0.3,0.6,0.7l-0.1,3.8
										C435.1,1433.4,434.8,1433.7,434.5,1433.7C434.5,1433.7,434.5,1433.7,434.5,1433.7z M434.7,1426.1c-0.4,0-0.6-0.3-0.6-0.7
										l0.1-3.8c0-0.3,0.3-0.6,0.6-0.6c0.4,0,0.6,0.3,0.6,0.7l-0.1,3.8C435.3,1425.9,435,1426.1,434.7,1426.1
										C434.7,1426.1,434.7,1426.1,434.7,1426.1z"/>
								</g>
								<g>
									<path class="st30" d="M415.7,1740.7c0-0.3,0.3-0.6,0.6-0.6h2.4c0.4,0,0.6,0.3,0.6,0.6s-0.3,0.6-0.6,0.6h-2.4
										C416,1741.3,415.7,1741,415.7,1740.7z M421.9,1740.7c0-0.3,0.3-0.6,0.6-0.6h3.8c0.4,0,0.6,0.3,0.6,0.6s-0.3,0.6-0.6,0.6
										h-3.8C422.1,1741.3,421.9,1741,421.9,1740.7z M429.4,1740.7c0-0.3,0.3-0.6,0.6-0.6h3.8c0.4,0,0.6,0.3,0.6,0.6
										s-0.3,0.6-0.6,0.6H430C429.7,1741.3,429.4,1741,429.4,1740.7z M436.9,1740.7c0-0.3,0.3-0.6,0.6-0.6h3.8
										c0.4,0,0.6,0.3,0.6,0.6s-0.3,0.6-0.6,0.6h-3.8C437.2,1741.3,436.9,1741,436.9,1740.7z M444.5,1740.7c0-0.3,0.3-0.6,0.6-0.6
										h3.8c0.4,0,0.6,0.3,0.6,0.6s-0.3,0.6-0.6,0.6h-3.8C444.7,1741.3,444.5,1741,444.5,1740.7z M452,1740.7
										c0-0.3,0.3-0.6,0.6-0.6h3.8c0.4,0,0.6,0.3,0.6,0.6s-0.3,0.6-0.6,0.6h-3.8C452.3,1741.3,452,1741,452,1740.7z M459.5,1740.7
										c0-0.3,0.3-0.6,0.6-0.6h3.8c0.4,0,0.6,0.3,0.6,0.6s-0.3,0.6-0.6,0.6h-3.8C459.8,1741.3,459.5,1741,459.5,1740.7z
										 M467.1,1740.7c0-0.3,0.3-0.6,0.6-0.6h3.8c0.4,0,0.6,0.3,0.6,0.6s-0.3,0.6-0.6,0.6h-3.8
										C467.4,1741.3,467.1,1741,467.1,1740.7z M474.6,1740.7c0-0.3,0.3-0.6,0.6-0.6h3.8c0.4,0,0.6,0.3,0.6,0.6s-0.3,0.6-0.6,0.6
										h-3.8C474.9,1741.3,474.6,1741,474.6,1740.7z M482.1,1740.7c0-0.3,0.3-0.6,0.6-0.6h3.8c0.4,0,0.6,0.3,0.6,0.6
										s-0.3,0.6-0.6,0.6h-3.8C482.4,1741.3,482.1,1741,482.1,1740.7z M489.7,1740.7c0-0.3,0.3-0.6,0.6-0.6h3.8
										c0.4,0,0.6,0.3,0.6,0.6s-0.3,0.6-0.6,0.6h-3.8C490,1741.3,489.7,1741,489.7,1740.7z"/>
								</g>
							</g>
						</g>
						<polygon class="st31" points="427.1,1383.3 606.6,1401.8 604.2,1383.3 						"/>
					</g>
				</g>
				<g id="XMLID_366_">
					<path class="st32" d="M536.7,1166.9c0,0,61.2,8.8,91.1,43.3s-10.3,33.9-21.4,32.7C595.3,1241.7,536.7,1166.9,536.7,1166.9z"/>
					<g>
						<polygon class="st10" points="479.5,1129 484.9,1172.3 524.2,1166.3 524.5,1165.2 525.9,1159.8 527.4,1154.1 527.4,1154.1 
							532.7,1133.6 						"/>
						<path class="st10" d="M476.5,1113.1c0.9,24.7,16.4,47.6,41.1,46.7c24.7-0.9,43.8-0.8,48.4-49.9c2.3-24.6-21.7-44-46.4-43.2
							C494.9,1067.6,475.6,1088.3,476.5,1113.1z"/>
						<path class="st7" d="M522.9,1089.2c-7.6-3.6-16.4-4.3-24.4-1.6c-1.2,0.4-2.4,0.8-3.2,1.2c-4.7,2.3-4,15.5-4,15.5
							s-6.3-4.9-8.1,3.7c-1.8,8.6,6.2,9.9,6.2,9.9l-5.3,22.4c0,0-8.4-13.7-14.1-37.4c-5.6-23.1,13.4-59.5,35.9-52.5
							c0,0,18.8-15.9,41.4-9c24.7,7.6,41.8,23.3,52.2,11.3c0,0-7,58.8-54.6,44.3L522.9,1089.2z"/>
						<path class="st11" d="M523.2,1171.3l2.7-11.6c0,0-28.5,2.3-38.7-15C487.2,1144.8,487.4,1168.3,523.2,1171.3z"/>
					</g>
					<g id="XMLID_367_">
						<g>
							<path class="st33" d="M423.4,1314l-3.1-55.7c-2.5-44.7-0.1-91.4,71.6-91.4c0.1,0,0.2,0,0.3-0.1c4.8-0.8,8.3-1.1,9.9-1.2
								c0.7-0.1,1.1-0.1,1.1-0.1c92.5,0,90,34.4,92.8,82.9l2.9,52.2l9.3,76.8c0.7,5.4-3.6,10.3-9.1,10.3l-169.7,0.8
								c-5.3,0-9.5-4.4-9.2-9.6L423.4,1314z"/>
							<path class="st34" d="M502.2,1165.7c-1.7,0.1-5.2,0.5-9.9,1.2C495.5,1166.3,498.8,1165.9,502.2,1165.7z"/>
						</g>
					</g>
					<path class="st11" d="M575.7,1288.9L575.7,1288.9c-2.4-2.3-8.4,1.2-6.1-1.2l15-16.7c2.3-2.4,6.2-2.4,8.6-0.1l0,0
						c2.4,2.3,2.4,6.2,0.1,8.6l-9.1,9.3C582,1291.2,578.1,1291.2,575.7,1288.9z"/>
					<g>
						<path class="st35" d="M597.4,1316.8l-3.7-0.1c-4.5-0.2-8-3.9-7.8-8.4l3.7-109.8c0.2-4.5,3.9-8,8.4-7.8l3.5,0.1
							c-4.4-0.1-8.1,3.4-8.2,7.8l-3.7,109.8C589.5,1312.9,593,1316.6,597.4,1316.8z"/>
						<path class="st36" d="M669.5,1319.2l-3.5-0.1l-68.5-2.3c-4.5-0.2-8-3.9-7.8-8.4l3.7-109.8c0.1-4.4,3.8-7.9,8.2-7.8
							c0,0,0.1,0,0.1,0l68.4,2.3l3.7,0.1c4.5,0.2,8,3.9,7.8,8.4l-3.7,109.8C677.7,1315.8,674,1319.3,669.5,1319.2z"/>
						<path class="st15" d="M627.9,1253.6c-0.8,4.2,2,8.3,6.2,9.1c4.2,0.8,8.3-2,9.1-6.2s-2-8.3-6.2-9.1S628.7,1249.3,627.9,1253.6z
							"/>
						<path class="st15" d="M667.8,1203.2c-0.3,1.6,0.8,3.1,2.4,3.4s3.1-0.8,3.4-2.4s-0.8-3.1-2.4-3.4
							C669.6,1200.5,668.1,1201.6,667.8,1203.2z"/>
					</g>
					<g>
						<g>
							<path class="st10" d="M596.7,1316.4l-15.8,2c-7.2,0.9-13.9-4.2-14.8-11.4l-1.1-8.5c-0.9-7.2,4.2-13.9,11.4-14.8l15.8-2
								c7.2-0.9,13.9,4.2,14.8,11.4l1.1,8.5C609.1,1308.9,604,1315.5,596.7,1316.4z"/>
							<path class="st10" d="M585.8,1290.1l-0.4-2.9c-0.3-2.5,1.5-4.8,4-5.1l15.8-2c2.5-0.3,4.8,1.5,5.1,4l0.4,2.9
								c0.3,2.5-1.5,4.8-4,5.1l-15.8,2C588.4,1294.4,586.1,1292.6,585.8,1290.1z"/>
							<path class="st10" d="M594.9,1296.6l-0.4-2.9c-0.3-2.5,1.5-4.8,4-5.1l15.8-2c2.5-0.3,4.8,1.5,5.1,3.9l0.4,2.9
								c0.3,2.5-1.5,4.8-4,5.1l-15.8,2C597.5,1300.8,595.2,1299.1,594.9,1296.6z"/>
							<path class="st10" d="M592.7,1304.5l-0.4-2.9c-0.3-2.5,1.5-4.8,4-5.1l15.8-2c2.5-0.3,4.8,1.5,5.1,4l0.4,2.9
								c0.3,2.5-1.5,4.8-4,5.1l-15.8,2C595.4,1308.8,593.1,1307,592.7,1304.5z"/>
							<path class="st10" d="M586.3,1312.9l-0.4-2.9c-0.3-2.5,1.5-4.8,4-5.1l15.8-2c2.5-0.3,4.8,1.5,5.1,4l0.4,2.9
								c0.3,2.5-1.5,4.8-4,5.1l-15.8,2C588.9,1317.2,586.6,1315.4,586.3,1312.9z"/>
						</g>
						<g>
							
								<rect x="590.9" y="1288" transform="matrix(0.9841 -0.1774 0.1774 0.9841 -219.0883 127.0268)" class="st11" width="19.7" height="1.3"/>
						</g>
						<g>
							
								<rect x="597.7" y="1298.8" transform="matrix(0.9841 -0.1774 0.1774 0.9841 -220.8967 128.3563)" class="st11" width="19.3" height="1.3"/>
						</g>
						<g>
							
								<rect x="593.8" y="1307.6" transform="matrix(0.9841 -0.1774 0.1774 0.9841 -222.5419 127.5703)" class="st11" width="16.6" height="1.3"/>
						</g>
					</g>
					<path class="st32" d="M456.1,1178.3c-20.5,0.4-36.3,18-34.5,38.4c0.8,8.7,1.6,16.3,2.2,19.6c0.4,2.4,0.9,4.8,1.4,7.2
						c0.5,2.4,1,4.8,1.6,7.2c0.6,2.4,1.1,4.8,1.8,7.2l2.1,7.3c0.3,1.2,0.7,2.4,1.1,3.7l1.2,3.7l1.2,3.7l1.5,3.8l1.5,3.8
						c0.3,0.6,0.5,1.2,0.8,1.9l0.9,2l1.8,3.9l0.9,1.9l0.5,1l0.8,1.5c1.1,2,2.2,4,3.5,5.9c1.3,1.8,2.7,3.7,4.1,5.4
						c1.5,1.6,3,3.2,4.6,4.8c1.6,1.4,3.2,2.8,4.8,4.1c6.6,4.9,13.2,8.1,19.5,10.2c1.6,0.5,3.2,1.1,4.7,1.5l4.6,1.2
						c3,0.6,5.9,1.2,8.8,1.5c5.7,0.8,11.2,1,16.5,1c10.6-0.1,20.6-1.3,30.2-3.1c4.8-1,9.6-2,14.3-3.3c2.3-0.7,4.7-1.3,7-2l3.5-1.2
						l3.7-1.3l-6.2-34.1c-0.3-0.1-0.9-0.1-1.3-0.1l-1.5-0.1l-3.1-0.2c-2.1-0.1-4.1-0.3-6.2-0.5c-4.1-0.4-8.2-0.7-12.3-1.3
						c-8-0.9-15.9-2.3-22.9-4.2c-3.5-0.9-6.8-2-9.8-3.2c-0.7-0.3-1.5-0.6-2.1-0.9c-0.7-0.3-1.3-0.6-2-0.9l-1.7-1
						c-0.6-0.3-1-0.7-1.5-1c-1.9-1.3-2.8-5.7-2.8-5.7l-0.6-2.3l-0.3-1.1c-0.1-0.4-0.2-0.8-0.3-1.3l-0.5-2.5l-0.6-2.5l-0.5-2.7
						c-0.3-1.8-0.7-3.6-1-5.5c-0.6-3.8-2.3-22.1-3.8-39.3C490.2,1192,474.6,1177.9,456.1,1178.3L456.1,1178.3z"/>
					<g>
						<path class="st10" d="M667.7,1274.2l-0.3,2.9c-0.3,2.5,1.5,4.8,4,5l15.9,1.8c2.5,0.3,4.8-1.5,5-4l0.3-2.9c0.3-2.5-1.5-4.8-4-5
							l-15.9-1.8C670.3,1269.9,668,1271.7,667.7,1274.2z"/>
						<path class="st10" d="M664.6,1263.3l-0.3,2.9c-0.3,2.5,1.5,4.8,4,5l19.6,2.2c2.5,0.3,4.8-1.5,5-4l0.3-2.9c0.3-2.5-1.5-4.8-4-5
							l-19.6-2.2C667.1,1259,664.8,1260.8,664.6,1263.3z"/>
						<path class="st10" d="M668.8,1254.4l-0.3,2.9c-0.3,2.5,1.5,4.8,4,5l15.9,1.8c2.5,0.3,4.8-1.5,5-4l0.3-2.9c0.3-2.5-1.5-4.8-4-5
							l-15.9-1.8C671.3,1250.1,669.1,1251.9,668.8,1254.4z"/>
						<path class="st10" d="M672.5,1245.7l-0.3,2.9c-0.3,2.5,1.5,4.8,4,5l8.7,1c2.5,0.3,4.8-1.5,5-4l0.3-2.9c0.3-2.5-1.5-4.8-4-5
							l-8.7-1C675.1,1241.4,672.8,1243.2,672.5,1245.7z"/>
						<g>
							
								<rect x="679.1" y="1262" transform="matrix(5.960133e-02 -0.9982 0.9982 5.960133e-02 -630.5648 1874.7917)" class="st11" width="1.3" height="20.1"/>
						</g>
						<g>
							
								<rect x="679.5" y="1249.8" transform="matrix(0.1006 -0.9949 0.9949 0.1006 -642.5148 1810.4796)" class="st11" width="1.3" height="21.7"/>
						</g>
						<g>
							
								<rect x="680" y="1243.7" transform="matrix(8.110049e-02 -0.9967 0.9967 8.110049e-02 -621.7939 1828.2914)" class="st11" width="1.3" height="15.2"/>
						</g>
					</g>
				</g>
			</g>
			<g>
				<path class="st37" d="M1578.2,266.4l12.2,280.2l24-10.5l-12.3-280.2L1578.2,266.4z"/>
				<path class="st37" d="M1508.8,304.5c-9.1-3.9-19.5-3.2-31.4,2l-12.8,5.6l3.1-0.2c-6.4,4.5-10.8,9.9-13.1,16.4
					c-3.2,9.3-2.2,20.1,3.2,32.5l26.2,59.9c5.4,12.3,12.7,20.4,21.7,24.3c5.8,2.5,12.1,3.1,19.1,1.9c-0.3,0.6-0.5,1.2-0.5,1.8
					l12.8-5.6c11.9-5.2,19.4-12.5,22.7-21.8c3.3-9.3,2.2-20.1-3.2-32.5l-26.2-59.9C1525.1,316.6,1517.8,308.5,1508.8,304.5z
					 M1533.5,401c4.4,10,2.5,16.8-5.7,20.4c-8.2,3.6-14.5,0.4-18.9-9.6l-27.8-63.3c-4.4-10-2.5-16.8,5.7-20.5
					c8.2-3.6,14.5-0.4,18.9,9.6L1533.5,401z"/>
				<path class="st24" d="M1565.3,272l12.2,280.2l24-10.5l-12.3-280.2L1565.3,272z"/>
				<path class="st24" d="M1496,310.1c-9.1-3.9-19.5-3.2-31.4,2c-11.9,5.2-19.5,12.5-22.7,21.8c-3.2,9.3-2.2,20.1,3.2,32.5
					l26.2,59.9c5.4,12.3,12.7,20.4,21.7,24.3c9.1,3.9,19.5,3.3,31.4-1.9c11.9-5.2,19.4-12.5,22.7-21.8c3.3-9.3,2.2-20.1-3.2-32.5
					l-26.2-59.9C1512.3,322.2,1505,314.1,1496,310.1z M1520.7,406.6c4.4,10,2.5,16.8-5.7,20.4c-8.2,3.6-14.5,0.4-18.9-9.6
					l-27.8-63.3c-4.4-10-2.5-16.8,5.7-20.5c8.2-3.6,14.5-0.4,18.9,9.6L1520.7,406.6z"/>
				<path class="st37" d="M1686.6,357.5c-9.1-3.9-19.5-3.3-31.4,1.9l-15.3,6.7l5-0.9c-6,4.4-10.2,9.7-12.3,15.9
					c-3.2,9.3-2.2,20.1,3.2,32.5l26.2,59.9c5.4,12.3,12.7,20.4,21.7,24.3c6.4,2.8,13.6,3.2,21.4,1.4l-2.9,2.3l12.8-5.6
					c11.9-5.2,19.4-12.5,22.7-21.8c3.3-9.3,2.2-20.1-3.2-32.5l-26.2-59.9C1702.9,369.6,1695.7,361.5,1686.6,357.5z M1711.4,454
					c4.4,10,2.5,16.9-5.7,20.5s-14.5,0.4-18.9-9.7l-27.8-63.3c-4.4-10-2.5-16.9,5.7-20.4c8.2-3.6,14.5-0.4,18.9,9.6L1711.4,454z"/>
				<path class="st24" d="M1673.8,363.2c-9.1-3.9-19.5-3.3-31.4,1.9s-19.4,12.5-22.7,21.8c-3.2,9.3-2.2,20.1,3.2,32.5l26.2,59.9
					c5.4,12.3,12.7,20.4,21.7,24.3c9.1,3.9,19.5,3.3,31.4-1.9s19.4-12.5,22.7-21.8c3.3-9.3,2.2-20.1-3.2-32.5l-26.2-59.9
					C1690.1,375.2,1682.9,367.1,1673.8,363.2z M1698.6,459.6c4.4,10,2.5,16.9-5.7,20.5c-8.2,3.6-14.5,0.4-18.9-9.7l-27.8-63.3
					c-4.4-10-2.5-16.9,5.7-20.4c8.2-3.6,14.5-0.4,18.9,9.6L1698.6,459.6z"/>
			</g>
			<g>
				<path class="st37" d="M2316.4,1579.1l-146,148.2l17.8,7.7l146-148.2L2316.4,1579.1z"/>
				<path class="st37" d="M2260.7,1560.6c-2.4-6.9-8.1-12.2-16.9-16.1l-9.5-4.1l1.7,1.6c-5.7-1.2-10.8-0.8-15.5,1.2
					c-6.7,2.9-12.1,9-16,18.1l-19.3,44.5c-4,9.2-4.7,17.2-2.3,24.1c1.6,4.4,4.4,8.2,8.6,11.3c-0.5,0.1-0.9,0.3-1.2,0.7l9.5,4.1
					c8.8,3.8,16.6,4.3,23.3,1.3c6.7-2.9,12.1-9,16-18.1l19.3-44.5C2262.4,1575.6,2263.1,1567.6,2260.7,1560.6z M2220.8,1622.8
					c-3.2,7.4-7.9,9.9-14,7.2c-6.1-2.7-7.6-7.7-4.3-15.2l20.4-47.1c3.2-7.4,7.9-9.9,14-7.2c6.1,2.6,7.5,7.7,4.3,15.1L2220.8,1622.8z
					"/>
				<path class="st24" d="M2306.9,1574.9l-146,148.2l17.8,7.7l146-148.2L2306.9,1574.9z"/>
				<path class="st24" d="M2251.2,1556.5c-2.4-6.9-8.1-12.2-16.9-16.1c-8.8-3.8-16.6-4.3-23.3-1.3c-6.7,2.9-12.1,9-16,18.1
					l-19.3,44.5c-4,9.2-4.7,17.2-2.3,24.1c2.4,6.9,8.1,12.3,16.9,16.1c8.8,3.8,16.6,4.3,23.3,1.3c6.7-2.9,12.1-9,16-18.1l19.3-44.5
					C2252.9,1571.4,2253.6,1563.4,2251.2,1556.5z M2211.3,1618.7c-3.2,7.4-7.9,9.9-14,7.2c-6.1-2.7-7.6-7.7-4.3-15.2l20.4-47.1
					c3.2-7.4,7.9-9.9,14-7.2c6.1,2.6,7.5,7.7,4.3,15.1L2211.3,1618.7z"/>
				<path class="st37" d="M2321.7,1684c-2.4-6.9-8.1-12.3-16.9-16.1l-11.4-4.9l3,2.3c-5.4-1.1-10.4-0.6-14.9,1.3
					c-6.7,2.9-12.1,9-16,18.1l-19.3,44.5c-4,9.2-4.7,17.2-2.3,24.1c1.7,4.9,5.1,9,10.1,12.3l-2.7-0.4l9.5,4.1
					c8.8,3.8,16.6,4.3,23.3,1.3c6.7-2.9,12.1-9,16-18.1l19.3-44.5C2323.4,1698.9,2324.2,1690.9,2321.7,1684z M2281.8,1746.1
					c-3.2,7.5-7.9,9.9-14,7.2s-7.5-7.7-4.3-15.2l20.4-47c3.2-7.5,7.9-9.9,14-7.2s7.5,7.7,4.3,15.1L2281.8,1746.1z"/>
				<path class="st24" d="M2312.2,1679.9c-2.4-6.9-8.1-12.3-16.9-16.1c-8.8-3.8-16.6-4.2-23.3-1.3c-6.7,2.9-12.1,9-16,18.1
					l-19.3,44.5c-4,9.2-4.7,17.2-2.3,24.1c2.4,6.9,8.1,12.3,16.9,16.1c8.8,3.8,16.6,4.3,23.3,1.3c6.7-2.9,12.1-9,16-18.1l19.3-44.5
					C2313.9,1694.8,2314.7,1686.8,2312.2,1679.9z M2272.3,1742c-3.2,7.5-7.9,9.9-14,7.2s-7.5-7.7-4.3-15.2l20.4-47
					c3.2-7.5,7.9-9.9,14-7.2s7.5,7.7,4.3,15.1L2272.3,1742z"/>
			</g>
			<g>
				<path class="st37" d="M2511.8,554.2l-74.3,102.2l11.4,3l74.3-102.2L2511.8,554.2z"/>
				<path class="st37" d="M2476.6,548.1c-2.1-3.9-6-6.6-11.6-8.1l-6.1-1.6l1.2,0.8c-3.5-0.2-6.6,0.5-9.2,2.1
					c-3.8,2.4-6.4,6.5-8,12.3l-7.5,28.5c-1.6,5.8-1.3,10.8,0.8,14.7c1.3,2.5,3.4,4.5,6.2,6c-0.3,0.1-0.5,0.3-0.7,0.5l6.1,1.6
					c5.6,1.5,10.3,1.1,14.1-1.3c3.8-2.4,6.4-6.5,8-12.3l7.5-28.5C2479,556.9,2478.7,552.1,2476.6,548.1z M2458.3,589.1
					c-1.3,4.8-3.9,6.6-7.8,5.6c-3.9-1-5.2-3.9-4-8.7l8-30.1c1.3-4.8,3.9-6.6,7.8-5.6c3.9,1,5.2,3.9,4,8.7L2458.3,589.1z"/>
				<path class="st24" d="M2505.7,552.5l-74.3,102.2l11.4,3l74.3-102.2L2505.7,552.5z"/>
				<path class="st24" d="M2470.6,546.5c-2.1-3.9-6-6.6-11.6-8.1c-5.6-1.5-10.4-1.1-14.1,1.3c-3.8,2.4-6.4,6.5-8,12.3l-7.5,28.5
					c-1.6,5.8-1.3,10.8,0.8,14.7c2.1,3.9,6,6.6,11.6,8.1c5.6,1.5,10.3,1.1,14.1-1.3c3.8-2.4,6.4-6.5,8-12.3l7.5-28.5
					C2472.9,555.3,2472.6,550.4,2470.6,546.5z M2452.2,587.5c-1.3,4.8-3.9,6.6-7.8,5.6c-3.9-1-5.2-3.9-4-8.7l8-30.1
					c1.3-4.8,3.9-6.6,7.8-5.6c3.9,1,5.2,3.9,4,8.7L2452.2,587.5z"/>
				<path class="st37" d="M2524.5,616.7c-2.1-3.9-6-6.6-11.6-8.1l-7.3-1.9l2,1.1c-3.4-0.1-6.3,0.6-8.8,2.1c-3.8,2.4-6.4,6.5-8,12.3
					l-7.5,28.5c-1.6,5.8-1.3,10.8,0.8,14.7c1.5,2.8,3.9,5,7.2,6.5h-1.6l6.1,1.6c5.6,1.5,10.3,1.1,14.1-1.3c3.8-2.4,6.4-6.5,8-12.3
					l7.5-28.5C2526.8,625.5,2526.6,620.6,2524.5,616.7z M2506.1,657.6c-1.3,4.8-3.9,6.7-7.8,5.6s-5.2-3.9-3.9-8.7l8-30.1
					c1.3-4.8,3.9-6.6,7.8-5.6c3.9,1,5.2,3.9,4,8.7L2506.1,657.6z"/>
				<path class="st24" d="M2518.4,615.1c-2.1-3.9-6-6.6-11.6-8.1c-5.6-1.5-10.3-1-14.1,1.3c-3.8,2.4-6.4,6.5-8,12.3l-7.5,28.5
					c-1.6,5.8-1.3,10.8,0.8,14.7c2.1,3.9,6,6.6,11.6,8.1c5.6,1.5,10.3,1.1,14.1-1.3c3.8-2.4,6.4-6.5,8-12.3l7.5-28.5
					C2520.7,623.9,2520.5,619,2518.4,615.1z M2500,656c-1.3,4.8-3.9,6.7-7.8,5.6s-5.2-3.9-3.9-8.7l8-30.1c1.3-4.8,3.9-6.6,7.8-5.6
					s5.2,3.9,4,8.7L2500,656z"/>
			</g>
			<g>
				<path class="st37" d="M2421.1,1234.7L2418,1361l11.1-4l3.2-126.3L2421.1,1234.7z"/>
				<path class="st37" d="M2388.8,1249.7c-3.9-2-8.7-2.1-14.2-0.1l-5.9,2.1h1.4c-3,1.8-5.1,4.1-6.4,6.9c-1.8,4.1-1.6,9,0.4,14.7
					l9.9,27.7c2,5.7,5.1,9.6,9,11.6c2.5,1.3,5.4,1.8,8.5,1.4c-0.2,0.2-0.3,0.5-0.3,0.8l5.9-2.1c5.5-2,9.1-5,10.9-9.1
					c1.8-4.1,1.6-9-0.4-14.7l-9.9-27.7C2395.7,1255.6,2392.7,1251.8,2388.8,1249.7z M2396.9,1293.8c1.7,4.6,0.6,7.7-3.2,9
					c-3.8,1.4-6.6-0.3-8.2-4.9l-10.5-29.3c-1.7-4.6-0.6-7.7,3.2-9c3.8-1.4,6.5,0.3,8.2,4.9L2396.9,1293.8z"/>
				<path class="st24" d="M2415.2,1236.8l-3.2,126.3l11.1-4l3.2-126.3L2415.2,1236.8z"/>
				<path class="st24" d="M2382.9,1251.8c-3.9-2-8.7-2.1-14.2-0.1c-5.5,2-9.1,5-10.9,9.1c-1.8,4.1-1.6,9,0.4,14.7l9.9,27.7
					c2,5.7,5.1,9.6,9,11.6c3.9,2.1,8.7,2.1,14.2,0.1c5.5-2,9.1-5,10.9-9.1c1.8-4.1,1.6-9-0.4-14.7l-9.9-27.7
					C2389.8,1257.8,2386.8,1253.9,2382.9,1251.8z M2391,1296c1.7,4.6,0.6,7.7-3.2,9c-3.8,1.4-6.6-0.3-8.2-4.9l-10.5-29.3
					c-1.7-4.6-0.6-7.7,3.2-9c3.8-1.4,6.5,0.3,8.2,4.9L2391,1296z"/>
				<path class="st37" d="M2467.1,1279.1c-3.9-2-8.7-2.1-14.2-0.1l-7.1,2.6l2.3-0.2c-2.8,1.8-4.9,4-6,6.8c-1.8,4.1-1.6,9,0.4,14.7
					l9.9,27.7c2,5.7,5.1,9.6,9,11.6c2.8,1.4,6,1.9,9.6,1.3l-1.4,0.9l5.9-2.1c5.5-2,9.1-5,10.9-9.1c1.8-4.1,1.6-9-0.4-14.7l-9.9-27.7
					C2474,1285,2471,1281.1,2467.1,1279.1z M2475.2,1323.2c1.7,4.7,0.6,7.7-3.2,9s-6.5-0.3-8.2-4.9l-10.5-29.3
					c-1.7-4.7-0.6-7.7,3.2-9s6.5,0.3,8.2,4.9L2475.2,1323.2z"/>
				<path class="st24" d="M2461.1,1281.2c-3.9-2-8.7-2.1-14.2-0.1s-9.1,5-10.9,9.1c-1.8,4.1-1.6,9,0.4,14.7l9.9,27.7
					c2,5.7,5.1,9.6,9,11.6c3.9,2.1,8.7,2.1,14.2,0.1s9.1-5,10.9-9.1c1.8-4.1,1.6-9-0.4-14.7l-9.9-27.7
					C2468.1,1287.1,2465.1,1283.2,2461.1,1281.2z M2469.3,1325.3c1.7,4.7,0.6,7.7-3.2,9s-6.5-0.3-8.2-4.9l-10.5-29.3
					c-1.7-4.7-0.6-7.7,3.2-9s6.5,0.3,8.2,4.9L2469.3,1325.3z"/>
			</g>
			<g>
				<path class="st37" d="M2333.1,870.2l-128.7,177l19.7,5.2l128.6-177L2333.1,870.2z"/>
				<path class="st37" d="M2272.2,859.8c-3.6-6.8-10.3-11.5-20.1-14l-10.6-2.8l2,1.4c-6.1-0.4-11.4,0.8-15.9,3.7
					c-6.5,4.1-11.1,11.2-13.8,21.4l-13.1,49.3c-2.7,10.1-2.2,18.6,1.4,25.4c2.3,4.3,5.9,7.8,10.7,10.4c-0.5,0.2-0.9,0.5-1.1,0.9
					l10.6,2.8c9.8,2.6,17.9,1.8,24.4-2.3c6.5-4.1,11.1-11.2,13.8-21.4l13.1-49.3C2276.3,875.1,2275.8,866.6,2272.2,859.8z
					 M2240.4,930.8c-2.2,8.2-6.7,11.5-13.4,9.7c-6.8-1.8-9.1-6.8-6.9-15.1l13.8-52.2c2.2-8.2,6.7-11.5,13.4-9.7
					c6.8,1.8,9,6.8,6.9,15.1L2240.4,930.8z"/>
				<path class="st24" d="M2322.6,867.5l-128.7,177l19.7,5.2l128.6-177L2322.6,867.5z"/>
				<path class="st24" d="M2261.7,857c-3.6-6.8-10.3-11.5-20.1-14c-9.8-2.6-17.9-1.8-24.4,2.2c-6.5,4.1-11.1,11.2-13.8,21.4
					l-13.1,49.3c-2.7,10.1-2.2,18.6,1.4,25.4c3.6,6.8,10.3,11.5,20.1,14.1c9.8,2.6,17.9,1.8,24.4-2.3c6.5-4.1,11.1-11.2,13.8-21.4
					l13.1-49.3C2265.8,872.3,2265.3,863.8,2261.7,857z M2229.9,928c-2.2,8.2-6.7,11.5-13.4,9.7c-6.8-1.8-9.1-6.8-6.9-15.1l13.8-52.2
					c2.2-8.2,6.7-11.5,13.4-9.7c6.8,1.8,9,6.8,6.9,15.1L2229.9,928z"/>
				<path class="st37" d="M2355,978.6c-3.6-6.8-10.3-11.5-20.1-14.1l-12.6-3.3l3.5,1.9c-5.8-0.2-10.9,1-15.3,3.7
					c-6.5,4.1-11.1,11.2-13.8,21.4l-13.1,49.3c-2.7,10.1-2.2,18.6,1.4,25.4c2.6,4.8,6.7,8.6,12.4,11.3l-2.9,0l10.6,2.8
					c9.8,2.6,17.9,1.8,24.4-2.3c6.5-4.1,11.1-11.2,13.8-21.4l13.1-49.3C2359.1,993.8,2358.7,985.4,2355,978.6z M2323.3,1049.5
					c-2.2,8.3-6.7,11.5-13.4,9.7s-9-6.8-6.9-15.1l13.8-52.1c2.2-8.3,6.7-11.5,13.4-9.7s9.1,6.8,6.9,15.1L2323.3,1049.5z"/>
				<path class="st24" d="M2344.5,975.8c-3.6-6.8-10.3-11.5-20.1-14.1c-9.8-2.6-17.9-1.8-24.4,2.3c-6.5,4.1-11.1,11.2-13.8,21.4
					l-13.1,49.3c-2.7,10.1-2.2,18.6,1.4,25.4c3.6,6.8,10.3,11.5,20.1,14.1c9.8,2.6,17.9,1.8,24.4-2.3c6.5-4.1,11.1-11.2,13.8-21.4
					l13.1-49.3C2348.6,991,2348.1,982.6,2344.5,975.8z M2312.7,1046.7c-2.2,8.3-6.7,11.5-13.4,9.7s-9-6.8-6.9-15.1l13.8-52.1
					c2.2-8.3,6.7-11.5,13.4-9.7s9.1,6.8,6.9,15.1L2312.7,1046.7z"/>
			</g>
		</g>
		<g>
			<g>
				<path class="st38" d="M1836.3,1778.6c0.4,0.2,10.2,5.2,6.8,15.7h-22.7c0.5-4.2,2.9-8,6.7-10.2
					C1830.7,1781.9,1833.7,1780.2,1836.3,1778.6z"/>
				<path class="st38" d="M1937.7,1763.8v16c-20.8-0.3-18.5-18.7-18.5-18.7c8.3-0.5,13.3-1.2,14.2-1.4c0.1,0,0.2,0,0.2,0h0.1
					C1935.9,1759.7,1937.7,1761.6,1937.7,1763.8z"/>
				<path class="st39" d="M1860.8,1763.2c1.7-1.1,3.5-2.2,5.5-3.5c0,0,2.3,0.3,6.4,0.7c6,0.6,15.7,1.3,27.3,1.3c1,0,2.1,0,3,0
					c6.3-0.1,11.7-0.3,16.2-0.6c0,0-2.3,18.4,18.5,18.7v14.4h-94.6c3.4-10.4-6.4-15.5-6.8-15.7c5.5-3.4,9.6-5.9,15.2-9.5
					C1854.2,1767.4,1857.1,1765.5,1860.8,1763.2z"/>
				<path class="st10" d="M2090.3,1748v11.7c0,0-0.1,0-0.1,0c-1.6,0.2-16.1,1.7-30.4,1.9c-1,0-2,0-3,0c-12.2,0-22.4-0.8-28.2-1.3
					c-3.4-0.4-5.3-0.6-5.3-0.6V1748h62L2090.3,1748L2090.3,1748z"/>
				<path class="st40" d="M2094.3,1741.5l-9.5-314.1l-1.2,0c-2.6,0-5.1-0.2-7.6-0.7c-17.7-3.5-31.1-19.2-31.1-37.9h-28h-41.5
					l14.7,123.7l27.3,229l0.8,6.4h5h62h5.1h4.2L2094.3,1741.5z"/>
				<path class="st10" d="M1933.6,1748v11.7c0,0-0.1,0-0.2,0c-1.6,0.2-16.1,1.7-30.4,1.9c-1,0-2,0-3,0c-11.6,0-21.3-0.7-27.3-1.3
					c-4-0.4-6.2-0.7-6.2-0.7V1748h3.1L1933.6,1748L1933.6,1748z"/>
				<path class="st41" d="M1975.5,1388.8h-28c0,17.9-11.3,33-31.4,37.4c-3.8,0.8-8,1.3-12.4,1.3l-41.4,314.1l-0.9,6.5h5h3.1h64h5.7
					l1.4-6.5l49.6-229L1975.5,1388.8z"/>
				<path class="st42" d="M1937.7,1794.2v0.5c0,2.9-2.3,5.2-5.2,5.2h-108.1c-1.1,0-2.2-0.5-2.9-1.2c-0.7-0.7-1.2-1.8-1.2-2.9
					c0-0.6,0-1.1,0.1-1.6h22.7L1937.7,1794.2L1937.7,1794.2z"/>
				<g>
					<polygon class="st43" points="1975.5,1388.8 1980.2,1558.6 1990.2,1512.5 					"/>
					<path class="st43" d="M2083.6,1388.8l1.2,38.6l-1.2,0c-2.6,0-5.1-0.2-7.6-0.7c-17.7-3.5-31.1-19.2-31.1-37.9L2083.6,1388.8
						L2083.6,1388.8z"/>
					<path class="st43" d="M1908.8,1388.8h38.7c0,17.9-11.3,33-31.4,37.4c-3.8,0.8-8,1.3-12.4,1.3L1908.8,1388.8z"/>
					<polygon class="st31" points="1908.8,1388.8 2084.2,1408.1 2083.6,1388.8 					"/>
				</g>
				<g>
					<g>
						<g id="XMLID_356_">
							<g>
								<path class="st39" d="M2090.9,1757.3l7.7,26.8h-0.3c-4.5-7.5-13.6-12.6-24.1-12.6h-35.4c-10.5,0-19.6,5.1-24.1,12.6h0
									l7.6-26.8H2090.9z"/>
								<path class="st42" d="M2101.5,1796.7v1.5c0,2.3-1.9,4.2-4.2,4.2h-81.4c-2.3,0-4.2-1.9-4.2-4.2v-1.5H2101.5z"/>
								<path class="st38" d="M2101.5,1795v1.7h-89.8v-1.7c0-3.9,1.1-7.7,3.1-10.9h0c4.5-7.5,13.6-12.6,24.1-12.6h35.4
									c10.4,0,19.5,5.1,24.1,12.6C2100.4,1787.3,2101.5,1791,2101.5,1795z"/>
							</g>
						</g>
					</g>
					<g>
						<path class="st15" d="M2075.6,1761.1h-39.2c-0.3,0-0.6-0.3-0.6-0.6s0.3-0.6,0.6-0.6h39.2c0.3,0,0.6,0.3,0.6,0.6
							S2075.9,1761.1,2075.6,1761.1z"/>
					</g>
					<g>
						<path class="st15" d="M2075.6,1764.8h-39.2c-0.3,0-0.6-0.3-0.6-0.6s0.3-0.6,0.6-0.6h39.2c0.3,0,0.6,0.3,0.6,0.6
							C2076.2,1764.5,2075.9,1764.8,2075.6,1764.8z"/>
					</g>
					<g>
						<path class="st15" d="M2075.6,1768.5h-39.2c-0.3,0-0.6-0.3-0.6-0.6s0.3-0.6,0.6-0.6h39.2c0.3,0,0.6,0.3,0.6,0.6
							C2076.2,1768.3,2075.9,1768.5,2075.6,1768.5z"/>
					</g>
					<g>
						<path class="st15" d="M2101.5,1797.3h-89.8c-0.3,0-0.6-0.3-0.6-0.6s0.3-0.6,0.6-0.6h89.8c0.3,0,0.6,0.3,0.6,0.6
							S2101.8,1797.3,2101.5,1797.3z"/>
					</g>
				</g>
			</g>
			<g>
				<g>
					<g>
						<path class="st10" d="M1783.8,1231.1l9,8.1c6.1,5.5,15.5,5,21-1.1l3.2-3.6c5.5-6.1,5-15.5-1.1-21l-9-8.1
							c-6.1-5.5-15.5-5-21,1.1l-3.2,3.6C1777.2,1216.2,1777.7,1225.6,1783.8,1231.1z"/>
						<path class="st10" d="M1815,1219.4L1815,1219.4c3.2-0.5,6.1,5.7,5.6,2.4l-2.8-22c-0.5-3.2-3.6-5.5-6.9-4.9l0,0
							c-3.2,0.5-5.5,3.6-4.9,6.9l2.1,12.7C1808.7,1217.7,1811.8,1219.9,1815,1219.4z"/>
						<path class="st10" d="M1807.2,1213.6L1807.2,1213.6c2.2-2.4,2-6.2-0.4-8.4l-9.5-8.6c-2.4-2.2-6.2-2-8.4,0.4l0,0
							c-2.2,2.4-2,6.2,0.4,8.4l9.5,8.6C1801.2,1216.3,1804.9,1216.1,1807.2,1213.6z"/>
						<path class="st10" d="M1796.1,1213.7L1796.1,1213.7c2.2-2.4,2-6.2-0.4-8.4l-9.5-8.6c-2.4-2.2-6.2-2-8.4,0.4l0,0
							c-2.2,2.4-2,6.2,0.4,8.4l9.5,8.6C1790.1,1216.4,1793.9,1216.2,1796.1,1213.7z"/>
						<path class="st10" d="M1793.4,1221.3L1793.4,1221.3c2.2-2.4,2-6.2-0.4-8.4l-9.5-8.6c-2.4-2.2-6.2-2-8.4,0.4l0,0
							c-2.2,2.4-2,6.2,0.4,8.4l9.5,8.6C1787.4,1224,1791.2,1223.8,1793.4,1221.3z"/>
						<path class="st10" d="M1793.9,1231.8L1793.9,1231.8c2.2-2.4,2-6.2-0.4-8.4l-9.5-8.6c-2.4-2.2-6.2-2-8.4,0.4l0,0
							c-2.2,2.4-2,6.2,0.4,8.4l9.5,8.6C1787.9,1234.4,1791.7,1234.2,1793.9,1231.8z"/>
					</g>
					<path class="st44" d="M1900.9,1217.8c25.9-36,65-42.8,69.8-43.6c-34,5.9-60.1,34.9-61.5,70.2c-0.1,1-0.1,2-0.1,3v44.5
						c-57.2,32.1-110.1-45.3-110.1-45.3l26.4-24.5C1846.8,1245.5,1873.2,1256.2,1900.9,1217.8z"/>
					<path class="st32" d="M2117.4,1306.8c0,46.3-11.6,84-47.6,118.7c-1.2-0.4-4.9-1.2-14.2-10.1c-5.8-5.6-9.9-18.4-9.9-18.4
						s1.9-3.1,4.6-8.4l-13.1,0l-80.9,0.1l-46.1,0.1c-3.9,0-6.9-3.2-6.7-7.1l5.6-89.6v-44.5c0-1,0-2,0.1-3
						c1.4-35.3,27.5-64.3,61.5-70.2c0.2,0,0.3-0.1,0.5-0.1c4-0.7,8.1-1,12.3-1h26.3c4.2,0,8.3,0.3,12.3,1c5.5,0.9,10.8,2.4,15.8,4.5
						C2080.9,1193.9,2117.3,1247.4,2117.4,1306.8z"/>
					<path class="st45" d="M2025.9,1388.8H1945v-0.1l13.4-200.3l0.9-14.2c0.2,0,0.3-0.1,0.5-0.1c4-0.7,8.1-1,12.3-1h26.3
						c4.2,0,8.3,0.3,12.3,1l1,14.6l14.1,199.8L2025.9,1388.8z"/>
					<path class="st32" d="M1959.4,1174.3l-14.4,239.3l-44.5-9.5l16.6-117c0,0,6.1-37.4,11.7-58.2
						C1934.4,1208.1,1959.4,1174.3,1959.4,1174.3z"/>
					<path class="st32" d="M2010.8,1174.2l15.1,239.3l53.1-6c0,0,7.9-38.7,15.3-75c7.4-36.3,0.7-99.8-17.8-117.5
						C2058.1,1197.2,2010.8,1174.2,2010.8,1174.2z"/>
					<path class="st44" d="M2033.8,1246.3c0,0,8.4,18.6,14.7,47.6c6.3,28.9-2.8,103.2-2.8,103.2l4.6-8.9c0,0,20.7-42.4,17.6-68.5
						C2064.9,1293.5,2054.6,1270.4,2033.8,1246.3z"/>
					<g>
						
							<rect x="1794.1" y="1195.4" transform="matrix(0.7071 -0.7071 0.7071 0.7071 -326.4808 1622.0547)" class="st11" width="1.2" height="19.5"/>
					</g>
					<g>
						
							<rect x="1782.8" y="1200.7" transform="matrix(0.7071 -0.7071 0.7071 0.7071 -333.3891 1615.4935)" class="st11" width="1.2" height="19"/>
					</g>
					<g>
						
							<rect x="1782" y="1212.1" transform="matrix(0.7071 -0.7071 0.7071 0.7071 -340.7308 1617.9395)" class="st11" width="1.2" height="16.4"/>
					</g>
				</g>
				<g>
					<path class="st10" d="M2011.6,1191.3c-6.4,3.1-15.8,5.1-26.3,5.1c-10.9,0-20.7-2.1-27.1-5.5l0.9-13.1l0.1-1.1c0,0,0,0,0.1,0
						h-0.1c0,0,0.6-0.2,1.4-0.8c1.3-0.9,3-2.6,2.8-5.5c-0.1-1.4-1.4-5.3-1.4-5.3l-1.4-5.6l0-0.1l-5.2-20.2l52.5-4.6
						c0,0-4.5,24.1-3.8,33.1c0.5,5.9,6.4,8.8,6.5,8.9h0L2011.6,1191.3z"/>
					<path class="st11" d="M2000.3,1150.4c0,0-4,21.2-33.3,26.4c-1.9,0.3-5.5,0.9-7.9,1.1l0.1-1.1c0,0,0,0,0.1,0h-0.1
						c0,0,0.6-0.2,1.4-0.8c1.3-0.9,3-2.6,2.8-5.5c-0.1-1.4-1.5-5.8-1.5-5.8S1990.2,1167.4,2000.3,1150.4z"/>
					<path class="st10" d="M2017.9,1118.3c-0.9,24.4-16.2,47-40.6,46.1s-45.9,0-47.8-49.3c-1.3-34.2,21.4-43.5,45.8-42.6
						S2018.8,1093.9,2017.9,1118.3z"/>
					<path class="st7" d="M1935.8,1099.4c1.9,1.4,4.9,2.6,9.5,3.1c15.9,1.7,44.7-11.3,44.7-11.3s-2.8,8.6-1.9,24.1
						c0,0,5.1-9.8,12.4-0.4c6.5,8.5-2.8,18.5-8.3,16.3c0,0-2.6,19.2-12.2,20.9c-9.6,1.7-11.4-7.2-25.8-10.9
						c-14.3-3.6-19.2,3.8-19.2,3.8c12.4,29.3,54,18.6,54,18.6s5.2,5.2,16.2,4.1c11.1-1.1,13.3-25,13.3-25c7.5,2.7,16-12.1,17.3-34.5
						c1.3-22.5-19.5-23.1-19.5-23.1s2.5-15.7-21.9-24.5c-23.7-8.6-32.2,0.7-32.6,1.2c0.2-0.7,4.8-16.1-7.6-16.3
						c-12.8-0.2-11.2,12.8-11.2,12.8c-14.2-12.9-34.6,4.7-30.9,19.4c3.7,14.8,20.6,13.2,20.6,13.2S1931,1095.8,1935.8,1099.4
						L1935.8,1099.4z"/>
					<path class="st30" d="M1988.3,1101.2c0,0-0.7,15.3,0.2,25c0.8,9.7,1.4,19.5-4.8,24.3c0,0,11.9-3.5,8.7-20.7s-2.3-18.3-0.2-23.8
						C1994.1,1100.4,1988.3,1101.2,1988.3,1101.2z"/>
				</g>
			</g>
		</g>
		<g>
			<g>
				<path class="st27" d="M1622.4,1778.8c-0.4,0.2-10.2,5.2-6.8,15.7h22.7c-0.5-4.2-2.9-8-6.7-10.2
					C1628,1782.2,1625,1780.4,1622.4,1778.8z"/>
				<path class="st27" d="M1521,1764.1v16c20.8-0.3,18.5-18.7,18.5-18.7c-8.3-0.5-13.3-1.2-14.2-1.4c-0.1,0-0.2,0-0.2,0h-0.1
					C1522.8,1760,1521,1761.8,1521,1764.1z"/>
				<path class="st8" d="M1598,1763.4c-1.7-1.1-3.5-2.2-5.5-3.5c0,0-2.3,0.3-6.4,0.7c-6,0.6-15.7,1.3-27.3,1.3c-1,0-2.1,0-3,0
					c-6.3-0.1-11.7-0.3-16.2-0.6c0,0,2.3,18.4-18.5,18.7v14.4h94.6c-3.4-10.4,6.4-15.5,6.8-15.7c-5.5-3.4-9.6-5.9-15.2-9.5
					C1604.6,1767.6,1601.6,1765.7,1598,1763.4z"/>
				<path class="st10" d="M1368.4,1748.2v11.7c0,0,0.1,0,0.2,0c1.6,0.2,16.1,1.7,30.4,1.9c1,0,2,0,3,0c12.2,0,22.4-0.8,28.2-1.3
					c3.4-0.4,5.3-0.6,5.3-0.6v-11.7h-62L1368.4,1748.2L1368.4,1748.2z"/>
				<path class="st32" d="M1364.4,1741.8l9.5-314.1l1.2,0c2.6,0,5.1-0.2,7.6-0.7c17.7-3.5,31.1-19.2,31.1-37.9h28h41.5l-14.7,123.7
					l-27.3,229l-0.8,6.4h-5h-62h-5.1h-4.2L1364.4,1741.8z"/>
				<path class="st10" d="M1525.2,1748.2v11.7c0,0,0.1,0,0.2,0c1.6,0.2,16.1,1.7,30.4,1.9c1,0,2,0,3,0c11.6,0,21.3-0.7,27.3-1.3
					c4-0.4,6.2-0.7,6.2-0.7v-11.7h-3.1L1525.2,1748.2L1525.2,1748.2z"/>
				<path class="st44" d="M1483.3,1389h28c0,17.9,11.3,33,31.4,37.4c3.8,0.8,8,1.3,12.4,1.3l41.4,314.1l0.9,6.5h-5h-3.1h-64h-5.7
					l-1.4-6.5l-49.6-229L1483.3,1389z"/>
				<path class="st28" d="M1521,1794.5v0.5c0,2.9,2.3,5.2,5.2,5.2h108.1c1.1,0,2.2-0.5,2.9-1.2c0.7-0.7,1.2-1.8,1.2-2.9
					c0-0.6,0-1.1-0.1-1.6h-22.7L1521,1794.5L1521,1794.5z"/>
				<g>
					<polygon class="st17" points="1483.3,1389 1478.5,1558.8 1468.5,1512.7 					"/>
					<path class="st46" d="M1375.1,1389l-1.2,38.6l1.2,0c2.6,0,5.1-0.2,7.6-0.7c17.7-3.5,31.1-19.2,31.1-37.9L1375.1,1389
						L1375.1,1389z"/>
					<path class="st17" d="M1549.9,1389h-38.7c0,17.9,11.3,33,31.4,37.4c3.8,0.8,8,1.3,12.4,1.3L1549.9,1389z"/>
					<polygon class="st31" points="1549.9,1389 1374.5,1408.3 1375.1,1389 					"/>
				</g>
				<g>
					<g>
						<g id="XMLID_355_">
							<g>
								<path class="st8" d="M1367.1,1760l-7,24.3h0.3c4.5-7.5,13.4-5.5,23.9-5.5h35.4c10.5,0,19.7-2,24.3,5.5h0l-6.9-24.3H1367.1z"
									/>
								<path class="st27" d="M1357.2,1795.2v1.7h89.8v-1.7c0-3.9-1.1-7.7-3.1-10.9h0c-4.5-7.5-14.7-5.5-25.2-5.5h-35.4
									c-10.4,0-18.4-2-23,5.5C1358.4,1787.6,1357.2,1791.3,1357.2,1795.2z"/>
								<rect x="1357.2" y="1794.5" class="st28" width="89.8" height="5.7"/>
							</g>
						</g>
					</g>
					<g>
						<path class="st27" d="M1383.1,1764.4h39.2c0.3,0,0.6-0.3,0.6-0.6s-0.3-0.6-0.6-0.6h-39.2c-0.3,0-0.6,0.3-0.6,0.6
							S1382.8,1764.4,1383.1,1764.4z"/>
					</g>
					<g>
						<path class="st27" d="M1383.1,1768.1h39.2c0.3,0,0.6-0.3,0.6-0.6s-0.3-0.6-0.6-0.6h-39.2c-0.3,0-0.6,0.3-0.6,0.6
							S1382.8,1768.1,1383.1,1768.1z"/>
					</g>
					<g>
						<path class="st27" d="M1383.1,1771.8h39.2c0.3,0,0.6-0.3,0.6-0.6s-0.3-0.6-0.6-0.6h-39.2c-0.3,0-0.6,0.3-0.6,0.6
							C1382.5,1771.6,1382.8,1771.8,1383.1,1771.8z"/>
					</g>
				</g>
			</g>
			<g>
				<polygon class="st10" points="1436.6,1137 1441.9,1179.8 1480.7,1173.8 1481,1172.7 1482.3,1167.4 1483.8,1161.8 1483.8,1161.7 
					1489.1,1141.6 				"/>
				<path class="st10" d="M1433.6,1121.3c0.9,24.4,16.2,47,40.6,46.1s43.3-0.8,47.8-49.3c2.2-24.3-21.4-43.5-45.8-42.6
					S1432.7,1096.9,1433.6,1121.3z"/>
				<path class="st7" d="M1462.7,1059.4c0,0,0.5-35.2,52.8-32.7c48.2,2.2,50.5,111.9-36.1,71.1c-7.5-3.6-16.1-4.2-24-1.6
					c-1.2,0.4-2.3,0.8-3.2,1.2c-4.7,2.3-4,15.3-4,15.3s-6.2-4.9-8,3.6s6.2,9.8,6.2,9.8l-5.2,22.1c0,0-8.3-13.5-14-37
					C1421.7,1088.4,1440.4,1052.4,1462.7,1059.4z"/>
				<path class="st11" d="M1479.7,1178.8l2.7-11.4c0,0-28.1,2.3-38.2-14.8C1444.1,1152.6,1444.3,1175.8,1479.7,1178.8z"/>
			</g>
			<g>
				<g>
					<g>
						<path class="st10" d="M1682.7,1314.5l-12.1-0.6c-8.2-0.4-14.5-7.4-14.1-15.6l0.2-4.8c0.4-8.2,7.4-14.5,15.6-14.1l12.1,0.6
							c8.2,0.4,14.5,7.4,14.1,15.6l-0.2,4.8C1697.8,1308.6,1690.8,1314.9,1682.7,1314.5z"/>
						<path class="st10" d="M1668.9,1284.2L1668.9,1284.2c-1.9-2.7-8.3-0.3-5.7-2.2l17.5-13.6c2.7-1.9,6.4-1.3,8.3,1.4l0,0
							c1.9,2.7,1.3,6.4-1.4,8.3l-10.4,7.5C1674.6,1287.5,1670.8,1286.9,1668.9,1284.2z"/>
						<path class="st10" d="M1678.5,1285.7L1678.5,1285.7c0.2-3.3,3-5.8,6.3-5.7l12.8,0.7c3.3,0.2,5.8,3,5.7,6.3l0,0
							c-0.2,3.3-3,5.8-6.3,5.7l-12.8-0.7C1680.9,1291.8,1678.3,1289,1678.5,1285.7z"/>
						<path class="st10" d="M1686.2,1293.5L1686.2,1293.5c0.2-3.3,3-5.8,6.3-5.7l12.8,0.7c3.3,0.2,5.8,3,5.7,6.3l0,0
							c-0.2,3.3-3,5.8-6.3,5.7l-12.8-0.7C1688.6,1299.6,1686.1,1296.8,1686.2,1293.5z"/>
						<path class="st10" d="M1682.8,1300.8L1682.8,1300.8c0.2-3.3,3-5.8,6.3-5.7l12.8,0.7c3.3,0.2,5.8,3,5.7,6.3l0,0
							c-0.2,3.3-3,5.8-6.3,5.7l-12.8-0.7C1685.2,1306.9,1682.6,1304.1,1682.8,1300.8z"/>
						<path class="st10" d="M1675.1,1307.9L1675.1,1307.9c0.2-3.3,3-5.8,6.3-5.7l12.8,0.7c3.3,0.2,5.8,3,5.7,6.3l0,0
							c-0.2,3.3-3,5.8-6.3,5.7l-12.8-0.7C1677.4,1314,1674.9,1311.2,1675.1,1307.9z"/>
					</g>
					<g>
						<rect x="1683.6" y="1287.8" class="st11" width="19.5" height="1.2"/>
					</g>
					<g>
						<rect x="1688.2" y="1299.4" class="st11" width="19.1" height="1.2"/>
					</g>
					<g>
						<rect x="1682.9" y="1307.1" class="st11" width="16.4" height="1.2"/>
					</g>
				</g>
				<path class="st8" d="M1557.8,1218.1c-25.9-36-65-42.8-69.8-43.6c34,5.9,60.1,34.9,61.5,70.2c0.1,1,0.1,2,0.1,3v44.5
					c57.2,32.1,110.7,23.3,110.7,23.3V1281C1635.3,1278.3,1585.5,1256.4,1557.8,1218.1z"/>
				<path class="st27" d="M1395.2,1388.4l153.3,0.6c3.9,0,6.9-3.2,6.7-7.1l-5.6-89.7v-44.5c0-1,0-2-0.1-3
					c-1.4-35.3-27.5-64.3-61.5-70.2c-0.2,0-0.3-0.1-0.5-0.1c-4-0.7-8.1-1-12.3-1h-26.3c-9.9,0-19.4,1.9-28.1,5.5
					c-43,15.2-79.4,68.8-79.5,128.2c0,46.3-2.9,91.9,33.2,126.7c1.2-0.4,4.9-1.2,14.2-10.1c5.8-5.6,9.8-18.4,9.8-18.4
					S1396.1,1397.3,1395.2,1388.4z"/>
				<path class="st8" d="M1424.9,1246.6c0,0-8.4,18.6-14.7,47.6c-6.3,28.9,3.6,94.3,3.6,94.3h-18.6c0,0-7.4-42.4-4.4-68.5
					S1404.1,1270.7,1424.9,1246.6z"/>
			</g>
		</g>
	</g>
</g>
</svg>
